<?xml version="1.0" encoding="UTF-8" standalone="no"?>
<?xml version="1.0" encoding="UTF-8"?><svg
   xmlns:dc="http://purl.org/dc/elements/1.1/"
   xmlns:cc="http://creativecommons.org/ns#"
   xmlns:rdf="http://www.w3.org/1999/02/22-rdf-syntax-ns#"
   xmlns:svg="http://www.w3.org/2000/svg"
   xmlns="http://www.w3.org/2000/svg"
   xmlns:sodipodi="http://sodipodi.sourceforge.net/DTD/sodipodi-0.dtd"
   xmlns:inkscape="http://www.inkscape.org/namespaces/inkscape"
   width="1024"
   height="768"
   viewBox="0 0 1024 768"
   id="svg2"
   version="1.1"
   inkscape:version="0.91 r13725"
   sodipodi:docname="scene.svg">
  <metadata
     id="metadata728">
    <rdf:RDF>
      <cc:Work
         rdf:about="">
        <dc:format>image/svg+xml</dc:format>
        <dc:type
           rdf:resource="http://purl.org/dc/dcmitype/StillImage" />
      </cc:Work>
    </rdf:RDF>
  </metadata>
  <defs
     id="defs726" />
  <sodipodi:namedview
     pagecolor="#ffffff"
     bordercolor="#666666"
     borderopacity="1"
     objecttolerance="10"
     gridtolerance="10"
     guidetolerance="10"
     inkscape:pageopacity="0"
     inkscape:pageshadow="2"
     inkscape:window-width="1366"
     inkscape:window-height="705"
     id="namedview724"
     showgrid="false"
     inkscape:zoom="0.5625"
     inkscape:cx="509.97028"
     inkscape:cy="223.67292"
     inkscape:window-x="-8"
     inkscape:window-y="-8"
     inkscape:window-maximized="1"
     inkscape:current-layer="svg2" />
  <rect
     x="-5882.951"
     y="-5137.504"
     fill="#F5ECD9"
     width="12784.607"
     height="11218.004"
     id="bg5" />
  <rect
     x="-8088.1333"
     y="-6633.127"
     stroke-miterlimit="10"
     width="15687.934"
     height="14889.029"
     id="sky"
     style="fill:#2bacb5;stroke:#000000;stroke-miterlimit:10" />
  <text
     id="junetext"
     transform="translate(30,411.632)"
     style="enable-background:new">
    <tspan
       x="0"
       y="187.2"
       font-weight="100"
       font-size="36"
       id="tspan15"
       style="font-weight:100;font-size:36px;fill:#e84d5b">I am looking for internships at the moment, so feel free to contact me.</tspan>
  </text>
  <g
     id="london">
    <title
       id="title18">Layer 1</title>
    <g
       id="svg_2"><g
   id="layer17">
  <path
     id="path4607"
     fill="#E84D5B"
     d="M1593.918 997.435l-.451-56.526h-20.519v53.782h-11.217v-66.354h-19.258v49.591h-15.568v-39.114h-16.797v37.021h-15.537v-49.592s-13.078-39.115-23.637 0v49.592h-3.121v-83.119l-20.906 13.56v74.098h-8.938v-73.687h-4.98v-12.577h-15.237v10.479h-7.47v74.038h-8.067v-58.324l-4.351-.35-4.68-36.67-4.979 37.02h-6.209v58.324l-6.539-.698v-77.532l-12.508-24.342-11.428.245-13.619 26.49v77.234h-14.697v-90.804h-22.078v90.452h-5.276v-82.769h-17.431v79.275h-2.487v-69.848l-16.318 4.915v65.282h-18.176v-79.978l-5.73-11.143-5.969 11.581v78.49h-16.918v-82.77h-18.656v81.371h-3.75v-90.098h-30.146v88.354h-12.146v-49.591h-17.098v47.146h-2.49v-88.007h-20.217v88.703h-5.58v-81.37h-24.566v82.77h-11.518v-82h-7.318v-22.225h-12.959v22.227h-9.479v82.48h-12.299v-55.317h-20.906v55.562h-19.557v-75.812s-11.431-15.806-25.947-1.729c.211 7.653 0 78.281 0 78.281h-4.859v-66.422h-14.938l-15.117 63.332h-7.738v-27.278l-3.301-9.14-2.879 9.14h-16.258l-1.891-8.304-2.88 8.272v27.069h-10.948v-41.857h-13.646v40.995h-6.27v-71.123h-19.349v70.138h-13.647v-80.509h-21.535v17.286h-7.92v-19.756h-19.349v82.481h-5.278v-50.376h-12.748v48.895h-8.787v-64.699h-14.521v63.714h-14.518v-78.531h-16.707l.869 110.142 889.943.514z" />
  <path
     id="path4611"
     fill="#E84D5B"
     d="M307.835 1008.413l.439-56.527h20.526v53.782h11.193v-66.354h19.281v49.592h15.55v-39.116h16.791v37.021h15.55v-49.591s13.063-39.116 23.638 0v49.592h3.109v-83.118l20.919 13.559v74.098h8.938v-73.688h4.979v-12.574h15.238v10.479h7.469v74.036h8.068v-58.324l4.35-.351 4.681-36.67 4.979 37.021h6.209v58.323l6.539-.697v-77.534l12.508-24.341 11.431.246 13.616 26.489v77.234h14.697v-90.803h22.078v90.453h5.277v-82.77h17.397v79.275h2.49v-69.847l16.348 4.914v65.283h18.179v-79.977l5.729-11.144 5.969 11.58v78.49h16.918v-82.768h18.656v81.369h3.75v-90.102h30.146v88.356h12.146v-49.589h17.099v47.146h2.489v-88.006h20.218v88.703h5.58v-81.371h24.565v82.77h11.519v-82.001h7.317v-22.226h12.959v22.226h9.479v82.482h12.299v-55.318h20.906v55.563h19.557v-75.812s11.43-15.805 25.947-1.728c-.211 7.652 0 78.281 0 78.281h4.828v-66.428h14.969l15.117 63.332h7.737v-27.279l3.302-9.139 2.879 9.139h16.258l1.859-8.303 2.909 8.272v27.072h10.947v-41.86h13.647v40.996h6.271v-71.124h19.348v70.137h13.617v-80.509h21.568v17.288h7.918v-19.757h19.348v82.481h5.279v-50.367h12.748v48.896h8.787v-64.699h14.52v63.713h14.519v-78.531h16.707l-.869 110.142-889.928.512z" />
  <path
     id="path6551"
     fill="#00ADEF"
     d="M-130.707 1014.284l.439-56.527h20.523v53.785h11.197v-66.356h19.28v49.593h15.551v-39.116h16.792v37.021h15.55v-49.592s13.06-39.115 23.633 0v49.592h3.111v-83.119l20.916 13.562v74.099h8.938v-73.69h4.978v-12.57h15.237v10.476h7.463v74.037h8.087v-58.322l4.354-.348 4.664-36.67 4.977 37.018h6.222v58.322l6.528-.696 6.75-87.007 8.578-14.867 8.618.245 9.868 14.699 3.749 89.023h14.684v-90.806h22.079v90.452h5.286v-82.77h17.415v79.278h2.489v-69.851l16.33 4.914v65.283h18.188v-79.977l5.729-11.144 5.954 11.581v78.489h16.926v-82.768h18.661v81.374h3.729v-90.105h30.164v88.356h12.13v-49.593h17.104v47.15h2.487v-88.01h20.214v88.707h5.601v-81.37h24.565v82.771h11.507v-82h7.318v-22.226h12.973v22.226h9.455v82.479h12.316v-55.315h20.88v55.564h19.587v-75.815s11.429-15.806 25.946-1.728c-.21 7.655 0 78.283 0 78.283h4.829v-66.43h14.967l15.088 63.335h7.771v-27.282l3.301-9.135 2.85 9.135h16.287l1.859-8.303 2.879 8.273v27.071h10.979v-41.856h13.648v40.992h6.238v-71.12h19.377v70.133h13.618v-80.505h21.566v17.287h7.889v-19.756h19.377v82.479h5.279v-50.377h12.748v48.898h8.789v-64.703h14.518v63.713h14.519v-78.527h16.71l-.871 110.138-889.935.519z" />
  <path
     id="path2709"
     fill="#F7F7F7"
     d="M970.639 993.241h5.067v-90.803h22.078v90.452h5.279v-82.77h17.396v79.275h2.49v-69.845l16.349 4.914v65.282h18.178v-79.976l5.729-11.144 5.97 11.581v78.49h16.918v-82.769h18.655v81.37h3.75v-90.102h30.146v88.355h12.15v-49.592h17.098v47.146h2.488v-88.005h20.217v88.708h5.58v-81.375h24.565v82.771h11.519v-82.001h7.317v-22.226h12.959v22.226h9.479v82.481h12.299v-55.317h20.906v55.562h19.557v-75.812s11.428-15.805 25.947-1.729c-.211 7.653 0 78.281 0 78.281h4.828v-66.427h14.969l15.117 63.332h7.74v-27.279l3.299-9.135 2.879 9.135h16.258l1.859-8.303 2.91 8.271v27.073h10.948v-41.861h13.646v40.996h6.27v-71.121h19.349v70.134h13.616v-80.504h21.566v17.283h7.92v-19.757h19.349v82.482h5.276v-50.37h12.748v48.895h8.789v-64.698h14.518v63.713h14.521v-78.531h16.707l-.869 110.141-624.27.36" />
</g>
<g
   id="layer14">
  <path
     id="path4146"
     fill="#999"
     d="M-408.512 978.595v-133.582c0-6.252 7.622-21.322 17.2-21.586 10.027-.275 17.88 15.697 18.093 21.586.02.609 0 132.78 0 132.78l-35.293.802z" />
  <path
     id="path4153"
     fill="#E84D5B"
     d="M-85.83 767.775l10.381 36.312v178.909l-45.344.488v-181.397l9.997-33.278 12.706-23.102 12.26 22.068z" />
  <path
     id="path4155"
     fill="#00ADEF"
     d="M-59.564 954.884v-158.082h9.442v10.166h22.338v-10.22h8.828v158.079l-40.608.057z" />
  <path
     id="path4602"
     fill="#ECECEC"
     d="M1456.745 978.443l.271-179.954-36.025 25.379v154.575h35.754z" />
  <path
     id="path4604"
     fill="#F2F2F2"
     d="M1503.84 855.974l5.879 20.6v101.501l-25.705.278v-102.915l5.668-18.878 7.199-13.106 6.959 12.52z" />
</g>
<path
   id="tree04"
   stroke="#000"
   stroke-width=".159"
   d="M-397.399 960.048c2.415.273 3.744-1.227 6 .899 1.06 1.003 2.657 3.155 3.206 4.591.639 1.671.753 4.434 2.34 5.494 2.175 1.444 3.272-3.314 6.047-2.367 2.028.697 1.986 3.529 1.95 5.443-.103 6.119-3.72 11.024-3.252 14.981.411 3.49 4.803 4.053 4.574 8.57-.145 2.832-2.45 3.004-5.084 5.949-3 3.366-4.085 6.463-5.699 10.659-.492 1.294-1.109 4.238-1.842 5.037-1.452 1.59-3.503.006-5.357.737-1.405.552-2.084 1.943-3.4 2.833-2.48 1.671-7.925 2.196-9.409 5.376-.471 1.253-.081 6.7 0 8.513-.084 1.392.009 3.958-.699 5.113-.314.519-.726.853-1.299.853-2.159 0-1.901-3.848-1.901-5.431v-7.498c-.103-5.865-3.015-5.312-6.678-7.074l-4.292-2.495c-1.554-.927-3.228-2.595-4.77-3.053-1.921-.579-5.12.34-6.203-1.162-1.3-1.806.559-6.552-.349-9.242-.753-2.259-2.821-3.683-3.862-5.894-.564-1.195-1.894-6.164-1.898-7.498l.443-4.284c-.204-2.067-1.755-3.398-1.746-5.355.016-2.312 1.92-3.068 3.474-6.427 1.335-2.892 2.49-7.223 4.521-9.526 3.084-3.504 5.831-3.277 8.96-4.771 1.479-.703 4.033-3.354 7.631-4.944 1.455-.645 3.209-.63 4.77-.883 5.009-.662 11.212 2.566 13.824 2.856z" />
<g
   id="layer11">
  <g
     id="g3909"
     fill="#E84D5B"
     stroke="#000">
    <path
       id="path3094"
       stroke-width=".13"
       d="M1391.237 1041.392l-.149-47.581s3.631-.546 5.579-3.074v-126.068h-38.364v126.064c1.951 2.532 5.551 3.075 5.551 3.075v46.935c6.355 6.173 21.023 4.66 27.383.649z" />
    <path
       id="path3096"
       stroke-width=".13"
       d="M1369.879 864.752l-.119-66.107h15.268l.029 66.092-15.178.015z" />
    <path
       id="path3098"
       stroke-width=".13"
       d="M1359.922 853.319v4.668h35.184v-4.732l-35.184.064z" />
    <path
       id="path3100"
       stroke-width=".13"
       d="M1360.102 840.021v4.664h35.184v-4.729l-35.184.065z" />
    <path
       id="path3102"
       stroke-width=".13"
       d="M1359.862 826.718v4.668h35.187v-4.731l-35.187.063z" />
    <path
       id="path3104"
       stroke-width=".13"
       d="M1360.192 813.354v4.665h35.215v-4.729l-35.215.064z" />
    <path
       id="path3106"
       stroke-width=".13"
       d="M1359.922 799.797v4.668h35.184v-4.731l-35.184.063z" />
    <path
       id="path3108"
       stroke-width=".13"
       d="M1385.327 798.57s9.568-.386 11.367-1.793l-.059-3.39s-.57-.639-2.281-.956c-.147.063-.09-.832-.09-.832h1.59l.721-.832v-13.557h1.049s.632-.391.841-1.044v-17.614s-.841-1.107-1.949-1.492c.061-.066 0-12.005 0-12.005-1.199-2.229-6.689-3.043-10.351-3.595l.031-.927s3.181-.249 3.75-1.018c.06 0 1.17-1.107 1.229-1.56.03-.092 0-8.254 0-8.254-.449-.832-3.72-2.283-6.72-2.509l-13.946.013c-3 .227-6.271 1.678-6.689 2.51 0 0-.061 8.162 0 8.25.062.455 1.141 1.561 1.201 1.561.568.771 3.748 1.017 3.748 1.017l.029.931c-3.658.55-9.146 1.36-10.349 3.596 0 0-.061 11.938 0 12.005-1.108.384-1.948 1.492-1.948 1.492v17.609c.209.657.869 1.048.869 1.048h1.02v13.557l.721.832h1.619s.031.896-.119.832c-1.709.318-2.279.959-2.279.959l-.061 3.389c1.83 1.405 11.398 1.789 11.398 1.789l15.658-.012z" />
    <path
       id="path3110"
       stroke-width=".13"
       d="M1361.002 853.225v-.902h-2.101l-.36 1.356-2.398.045-.48-2.532v-2.621l.421-1.72 2.459-.09.6.902v3.844l2.76.091.031 1.492-.932.135z" />
    <path
       id="path3112"
       stroke-width=".13"
       d="M1360.311 839.791v-.906h-2.1l-.359 1.357-2.398.044-.512-2.529v-2.625l.451-1.718 2.459-.091.6.905v3.845l2.761.088.028 1.492-.93.138z" />
    <path
       id="path3114"
       stroke-width=".13"
       d="M1360.791 826.685v-.905h-2.07l-.359 1.356-2.43.047-.479-2.532v-2.624l.449-1.72 2.459-.09.601.906v3.843l2.729.092.029 1.492-.929.135z" />
    <path
       id="path3116"
       stroke-width=".13"
       d="M1364.36 813.268v-.902h-2.098l-.361 1.356-2.43.044-.479-2.532v-2.621l.449-1.719 2.459-.091.6.902v3.844l2.73.092.061 1.492-.931.135z" />
    <path
       id="path3118"
       stroke-width=".13"
       d="M1392.737 832.923h-2.91s-3.479 2.851-.119 6.784c.091-.136 3.779.182 3.779.182s3.24-4.208-.75-6.966z" />
    <path
       id="path3120"
       stroke-width=".13"
       d="M1392.948 846.767h-2.91s-3.51 2.852-.121 6.785c.091-.135 3.779.183 3.779.183s3.24-4.209-.748-6.968z" />
    <path
       id="path3122"
       stroke-width=".117"
       d="M1392.887 820.273h-2.312s-2.817 2.865-.119 6.824c.091-.139 3.062.183 3.062.183s2.578-4.23-.631-7.007z" />
    <path
       id="path3124"
       stroke-width=".11"
       d="M1389.438 809.073h-2.1s-2.521 2.874-.09 6.845c.059-.139 2.729.182 2.729.182s2.309-4.245-.539-7.027z" />
    <path
       id="path3126"
       stroke-width=".122"
       d="M1366.43 821.369h-2.549s-3.09 2.859-.121 6.808c.092-.135 3.33.183 3.33.183s2.85-4.222-.66-6.991z" />
    <path
       id="path3128"
       stroke-width=".134"
       d="M1367.27 834.243h-2.91s-3.479 3.052-.119 7.266c.09-.145 3.779.195 3.779.195s3.209-4.507-.75-7.461z" />
    <path
       id="path3130"
       stroke-width=".126"
       d="M1366.67 847.212h-2.729s-3.33 2.854-.121 6.791c.062-.135 3.601.182 3.601.182s3.06-4.211-.751-6.973z" />
    <path
       id="path3132"
       stroke-width=".143"
       d="M1371.979 693.586l11.068.165-.359 4.585h-10.799l.09-4.75z" />
    <path
       id="path3134"
       stroke-width=".187"
       d="M1382.268 703.112h-9.209v4.599h9.119l.09-4.599z" />
    <path
       id="path3136"
       stroke-width=".201"
       d="M1373.629 712.949h7.77v5.049h-7.74l-.03-5.049z" />
    <path
       id="path3138"
       stroke-width=".2"
       d="M1374.77 721.99h5.578v2.792h-5.639l.061-2.792z" />
    <path
       id="path3140"
       stroke-width=".324"
       d="M1374.407 727.439l-2.639-33.636 11.428.192-2.67 33.477-6.119-.033z" />
    <path
       id="path3142"
       stroke-width=".311"
       d="M1377.77 693.357v-23.086" />
  </g>
</g>
<path
   id="path3090"
   fill="#00ADEF"
   stroke="#000"
   stroke-width=".164"
   d="M1278.873 1039.703c-.511 2.001-2.671 4.816-2.88 4.986-15.088 13.478-55.012 15.751-76.698-1.672-.869-.688-4.709-6.138-4.709-6.281-3.9-37.473-27.388-266.804 37.975-355.58-.48-.525 7.049-.525 7.049-.525 68.898 77.973 42.623 358.635 39.263 359.072z" />



      path
         id=path3293
         fill=#00ADEF
         d=M838.656 1039.835v-7.781l.781-.866-.031-25.283s-1.108-1.558-.897-1.815c-.062-.304-.062-1.942-.062-1.942h1.109v-23.602l-1.049-.821v-.733l1.049.044-1.049-1.385v-1.298l-1.351-.883v-1.147l1.289-.994v-1.513l.871-.69v-5.534h-.811l-.449-.865v-.818l.479-.531h4.052v4.075h.809v.689h1.65v-.689h2.278v.866h1.32v.821h1.109v.516l.778.239v-3.05l.632-1.293.539-.605h5.43v.689h6.358v-.905h5.97v.861h15.54v-1.038h5.907v1.038h15.718v-1.165h5.789v1.165h15.147v-1.122h6.898v.994h5.52v-.949h-.869v-1.688h-.6v-1.427h1.68v-10.914h-1.108v-3.092h.51v-25.955000000000002l-1.35-1.513v-1.317l1.768-.758v-3.393l-.479-.146v-.868l2.13-1.514 3.149-1.061h3.39v-9.854l-1.289-1.115v-1.836h1.319v-.597h.568l-.09-.45h-.449l-.51-.583v-.678l1.469-.957v-2.173h.66c1.051-10.048 6.358-29.435 22.258-35.743v-1.378h.688v-.855s-1.229.146-1.409-.791c0-.242-.062-1.027.75-1.389l.479-.039v-2.918h.389v-1.576h.48v1.425h1.02v-2.507h-.538v-1.513h1.079v-10.979l-1.198-1.081v-.862h1.289v-3.441l1.229 1.374v1.682h.961v-6.235h-1.26v-1.101h.719v-3.361s1.59-2.84 2.58-2.84v-1.041l-.84-.488v-.489h.93v-2.644h.691s-.601-.465-.66-.906l-.031-1.018s.271-.495.541-.521l.392-.02v-.562c-2.761-1.528-.603-4.442 0-4.144l.059-5.386.48-2.918.448 2.918.091 5.386c.569-.3 2.76 2.614-.029 4.144v.562l.391.02c.299.024.539.521.539.521l-.029 1.018c-.061.441-.659.906-.659.906h.719v2.644h.9v.489l-.841.488v1.041c.99 0 2.58 2.84 2.58 2.84v3.361h.722v1.101h-1.263v6.236h.961v-1.683l1.229-1.373v3.441h1.291v.862l-1.199 1.081v10.979h1.078v1.513h-.539v2.507h1.021v-1.425h.479v1.575h.391v2.918l.479.04c.811.36.75 1.146.75 1.389-.18.937-1.41.791-1.41.791v.855h.691v1.378c15.896 6.31 21.207 25.695 22.285 35.743h.631v2.173l1.5.957v.677l-.539.583h-.42l-.121.451h.569v.597h1.318v1.836l-1.289 1.114v9.854h3.389l3.15 1.061 2.16 1.514v.867l-.51.146v3.392l1.77.759v1.317l-1.32 1.512v25.955h.48v3.093h-1.109v10.914h1.681v1.425h-.603v1.688h-.838v.676h7.648v-1.256h6.897v1.256h15.268v-1.094h5.908v1.224h15.869v-1.193h6.029v1.129h13.979v-1.081h7.588v1.004h30.355v-6.242l-.898-.755-.03-4.03.899-.455v-1.551h-.899v-5.196h2.698v-2.048l1.32.022-.811-1.26-.449-.58-.062-1.286.99.026v-1.642h.42v-13.944l-.75-.476-1.08-.594v-1.986h1.83v-3.028h.511v-2.118h1.348v-2.634h-.57v-.903h.57v-1.128h.84v1.099h.51v.934h-.51v1.516h.688l.812-1.452v-4.574h-.6v-1.496h.93v-1.534h.66v-1.062h-.66v-1.162h.631v-1.095h.449l-.09-.414h.569l-.061-1.978.869-1.302v-2.525l1.561-2.836h.301s.148-1.546.839-1.674l.061-1.134c-.629-.094-.897-1.333-.061-1.739.03 0 0-1.05 0-1.053-.988-.343-.988-2.173.36-2.224 1.351.055 1.351 1.881.359 2.227l-.029 1.05c.869.409.57 1.649-.031 1.739l.062 1.134c.688.131.84 1.678.84 1.678h.301l1.56 2.836v2.525l.84 1.301-.029 1.978h.57l-.09.415h.448v1.094h.601v1.162h-.66v1.062h.69v1.536h.929v1.495h-.601v4.574l.781 1.448h.688v-1.513h-.479v-.937h.479v-1.096h.871v1.129h.539v.902h-.539v2.628h1.318v2.117h.541v3.032h1.828v1.983l-1.109.597-.719.477v13.94h.42v1.646l.959-.027-.061 1.287-.42.579-.841 1.257 1.351-.023v2.052h2.701v5.196h-.9v1.552l.9.453-.031 4.032-.9.751v5.036h3.66v-1.166s-.66-.643-.6-1.128v-1.98s.149-.659.479-.839c-.061-.047 0-4.336 0-4.336l.39-.45s-.209-.88.51-.912c-.029 0 .75-.027.479 1.047 0-.018.722.462.722.462v1.162h-.302v.499h.511l-.029 3.979h-.449v9.947l.898.641v3.396h-.449v1.979h-.48v18.687h1.41v3.075h.959v2.074h-.479v.934h-1.41v3.056h.539v2.188h-.539v1.913h-.48v23.927h.931v.979h.51v.569h.479v8.135l-326.321.03-.027-.001z /
      <g
   id="g3281">
  <g
     id="g3293">
    <path
       id="path3295"
       fill="#002F5B"
       d="M710.456 872.81c0 1.199-1.021 2.173-2.28 2.173-1.261 0-2.279-.974-2.279-2.173 0-1.202 1.02-2.176 2.279-2.176s2.28.972 2.28 2.176z" />
    <path
       id="path3297"
       fill="#002F5B"
       stroke="#1A1A1A"
       stroke-width="2.442"
       d="M707.906 871.206l.15-6.896.211 6.887-.361.009z" />
    <path
       id="path3299"
       fill="#00ADEF"
       d="M708.926 874.312c-.238 1.172.451 8.37.541 8.397 7.858 2.25 8.908 10.021 8.908 10.021l2.129.02v4.39h-2.248l-.121 33.354-19.887-.043.028-33.066h-2.129v-4.668l2.01-.021s.511-8.249 8.369-9.735c.09-.017 1.049-7.296.779-8.469l1.621-.18z" />
  </g>
  <g
     id="g3301"
     stroke="#000">
    <path
       id="path3303"
       fill="#002F5B"
       stroke-width=".884"
       d="M677.909 860.676c0 1.199-1.02 2.173-2.278 2.173-1.26 0-2.279-.974-2.279-2.173 0-1.202 1.02-2.176 2.279-2.176s2.278.974 2.278 2.176z" />
    <path
       id="path3305"
       fill="#002F5B"
       stroke-width="2.442"
       d="M675.362 859.072l.15-6.896.209 6.883-.359.013z" />
    <path
       id="path3307"
       fill="#00ADEF"
       stroke-width=".828"
       d="M676.381 862.179c-.24 1.172.45 8.37.541 8.397 7.858 2.25 8.907 10.021 8.907 10.021l2.13.021v4.385h-2.248l-.121 33.355-19.888-.04.029-33.065h-2.129v-4.669l2.01-.021s.511-8.25 8.369-9.733c.09-.019 1.049-7.297.779-8.469l1.621-.182z" />
  </g>
  <path
     id="path3310"
     fill="#002F5B"
     stroke="#000"
     stroke-width=".884"
     d="M798.764 860.518c0 1.202-1.021 2.177-2.279 2.177-1.291 0-2.311-.975-2.311-2.177 0-1.198 1.02-2.177 2.311-2.177 1.258 0 2.279.977 2.279 2.177z" />
  <path
     id="path3312"
     fill="#002F5B"
     stroke="#000"
     stroke-width=".209"
     d="M796.184 858.914l.15-6.896.239 6.887-.389.009z" />
  <g
     id="g3314">
    <path
       id="path3316"
       fill="#002F5B"
       d="M770.178 872.048c0 1.105-.99 1.998-2.222 1.998-1.198 0-2.188-.893-2.188-1.998 0-1.102.99-1.997 2.188-1.997 1.232 0 2.222.895 2.222 1.997z" />
    <path
       id="path3318"
       fill="#002F5B"
       stroke="#1A1A1A"
       stroke-width="2.322"
       d="M767.719 870.579l.119-6.336.239 6.322-.358.014z" />
    <path
       id="path3321"
       fill="#00ADEF"
       d="M768.706 873.429c-.237 1.078.423 7.691.513 7.716 7.559 2.067 8.578 9.205 8.578 9.205l2.039.021v4.028h-2.158l-.121 30.637-19.168-.037.061-30.374h-2.069v-4.288l1.95-.017s.479-7.58 8.068-8.943c.09-.018.988-6.701.75-7.778l1.557-.17z" />
  </g>
  <path
     id="path3323"
     fill="#00ADEF"
     stroke="#000"
     stroke-width=".071"
     d="M797.293 862.38c-.271 1.173.422 8.371.51 8.398 7.858 2.25 8.91 10.023 8.91 10.023l2.129.021v4.386h-2.219l-.15 33.354-19.887-.038.028-33.069h-2.129v-4.669l2.008-.021s.513-8.249 8.369-9.73c.09-.021 1.051-7.3.812-8.474l1.619-.181z" />
  <path
     id="path3325"
     fill="#00ADEF"
     stroke="#000"
     stroke-width=".07"
     d="M826.6 919.636l.029-4.811c-.57-.441-3.72-.707-3.72-.707v5.996l-3.301-.474-.029-5.666c-2.039-.358-2.879-.475-4.799-.552l.029 5.443-3.539-.473v-5.108c-2.641-.088-4.529-.111-4.529-.111l.062 5.09-5.16-.03h-4.59v-5.406h-7.107l.06 5.471-4.498-.022v-5.406l-7.021.022-.029 5.464-4.528-.026v-5.403h-7.142l.031 5.48-4.469-.033v-5.406h-7.141l.092 5.46-4.529-.007v-5.406h-7.141l.09 5.476-4.529-.015v-5.405h-7.106l.028 5.46-4.5-.008v-5.405h-7.108l.03 5.474-4.5-.021v-5.406h-7.108l.061 5.471-4.528-.022v-5.406h-7.109v5.372h-4.529v-5.238h-27.115l.209 89.226c-.237.059 131.804-.471 132.041-.475 0 0 27.086-.428 28.617-4.133.084-1.623.025-78.213.025-78.324z" />
  <path
     id="path3056"
     fill="#002F5B"
     stroke="#000"
     stroke-width=".24"
     d="M657.034 1019.617l-.03-9.647s-1.681-.319-1.591-1.034c.091-.714 1.052-.198 1.351-1.07.899-2.811-.449-4.861-2.879-4.904-2.699.01-3.898 2.115-2.972 4.924.271.873 1.23.357 1.32 1.072.09.714-1.59 1.033-1.59 1.033l-.06 9.129v.535l6.451-.038z" />
</g>
<g
   id="g12775">
  <path
     id="path2236"
     fill="#fff"
     d="M217.136 887.749l1.519.04 1.325-8.276.618-2.998-.87-.069-.081-.635 1.089-.039.858-6.011.398-3.301.351 3.375.897 5.938.872.033.091.685-.893-.074 2.493 17.25.171 119.553-33.001-.003v-119.56l2.538-17.547-.789.081.062-.587.798-.07.789-4.691.491-3.938.281 3.965.76 4.456.792.064-.032.475-.657.078.792 3.561 2.441 8.229 1.515-.014 6.927-27.688 7.455 27.718z" />
  <path
     id="path7339"
     fill="#fff"
     d="M421.265 887.61h2.097l1.329-8.354.618-2.994-.87-.07-.081-.635 1.089-.043.858-6.01.397-3.301.353 3.378.896 5.936.87.034.093.685-.894-.074 2.492 17.25.174 119.557-33.001-.008v-119.56l2.538-17.548-.789.081.062-.587.796-.069.791-4.692.492-3.938.281 3.966.757 4.46.795.061-.032.479-.66.073.792 3.562 2.091 8.6 1.946.015 6.849-28.084 6.871 27.83z" />
  <path
     id="path7342"
     fill="#fff"
     d="M397.737 913.226l-78.275.023v-1.688s.477-3.398-1.413-3.221c.068-.026-1.706-.307-1.547 2.785l-3.805-.051-.045-2.633s2.594-3.427-.889-4.656c-1.771.805-1.758 2.701-.731 4.398.485.807.188 2.065.188 2.94l-3.873.027s.123-2.767-.957-2.763c0 0-2.387-.681-1.842 3.976h-78.979v13.116h176.035v-12.295l-3.867.042z" />
  <g
     id="g13443">
    <path
       id="path8345"
       fill="#262626"
       stroke="#000"
       stroke-width="3.3"
       d="M195.531 926.372c-50.342 56.454-75.534 82.606-139.94 84.854 0 0-50.432 3.24-78.712-20.895v.145" />
    <path
       id="path8336"
       fill="#D21C23"
       stroke="#262626"
       stroke-width="3.3"
       d="M194.754 923.425s-71.724 74.815-139.374 83.429c0 0-35.197 3.35-79.468-21.611" />
    <path
       id="path11254"
       fill="#262626"
       stroke="#000"
       d="M176.265 941.053l-5.373 12.684" />
    <path
       id="path11256"
       fill="#262626"
       stroke="#000"
       d="M168.16 946.984l10.931-.818" />
    <path
       id="path11258"
       fill="#262626"
       stroke="#000"
       d="M169.618 947.392l-4.012 11.05.366-.308" />
    <path
       id="path11262"
       fill="#262626"
       stroke="#000"
       d="M149.167 964.016l11.297-.919" />
    <path
       id="path11264"
       fill="#262626"
       stroke="#000"
       d="M146.845 965.498l-10.479 18.722" />
    <path
       id="path11266"
       fill="#262626"
       stroke="#000"
       d="M134.409 974.653l15.304.924" />
    <path
       id="path11268"
       fill="#262626"
       stroke="#000"
       d="M132.405 975.271l-10.2 19.332" />
    <path
       id="path11270"
       fill="#262626"
       stroke="#000"
       d="M121.202 981.92l13.39 5.727" />
    <path
       id="path11272"
       fill="#262626"
       stroke="#000"
       d="M118.833 983.759l-10.658 17.698" />
    <path
       id="path11274"
       fill="#262626"
       stroke="#000"
       d="M107.446 989.489l13.572 6.75" />
    <path
       id="path11276"
       fill="#262626"
       stroke="#000"
       d="M106.172 990.614l-11.66 15.443" />
    <path
       id="path11278"
       fill="#262626"
       stroke="#000"
       d="M94.056 996.138l12.208 6.033" />
    <path
       id="path11280"
       fill="#262626"
       stroke="#000"
       d="M89.865 998.183l-9.018 11.15" />
    <path
       id="path11282"
       fill="#262626"
       stroke="#000"
       d="M79.847 1001.558l10.475 5.22" />
    <path
       id="path11284"
       fill="#262626"
       stroke="#000"
       d="M76.019 1003.195c-.361 0-8.381 7.367-8.381 7.367" />
    <path
       id="path11286"
       fill="#262626"
       stroke="#000"
       d="M67.093 1004.934l8.927 4.811" />
    <path
       id="path11288"
       fill="#262626"
       stroke="#000"
       d="M64.453 1006.265l-6.561 5.318" />
    <path
       id="path11290"
       fill="#262626"
       stroke="#000"
       stroke-width="2"
       d="M56.981 1007.288l9.293 4.399" />
    <path
       id="path12267"
       fill="#262626"
       stroke="#000"
       stroke-width="2"
       d="M175.401 948.366v71.811" />
    <path
       id="path12269"
       fill="#262626"
       stroke="#000"
       stroke-width="2"
       d="M161.738 952.866v67.721" />
    <path
       id="path12271"
       fill="#262626"
       stroke="#000"
       stroke-width="2"
       d="M148.075 962.483v58" />
    <path
       id="path12273"
       fill="#262626"
       stroke="#000"
       stroke-width="2"
       d="M134.046 973.121v47.056" />
    <path
       id="path12275"
       fill="#262626"
       stroke="#000"
       stroke-width="2"
       d="M119.834 981.92v38.257" />
    <path
       id="path12277"
       fill="#262626"
       stroke="#000"
       stroke-width="2"
       d="M106.718 988.465v31.506l.354-.226.013.022" />
    <path
       id="path12279"
       fill="#262626"
       stroke="#000"
       stroke-width="2"
       d="M92.871 995.013v25.164" />
    <path
       id="path12281"
       fill="#262626"
       stroke="#000"
       stroke-width="2"
       d="M79.574 1000.332v20.255" />
    <path
       id="path12283"
       fill="#262626"
       stroke="#000"
       stroke-width="2"
       d="M65.728 1004.627v16.162" />
    <path
       id="path12376"
       fill="#262626"
       stroke="#000"
       d="M162.511 953.224l10.157-.715" />
    <path
       id="path12378"
       fill="#262626"
       stroke="#000"
       d="M158.639 956.09l-8.381 17.081" />
    <path
       id="path7591"
       fill="#262626"
       stroke="#000"
       stroke-width="2"
       d="M39.401 1019.894v-14.014" />
    <path
       id="path7593"
       fill="#262626"
       stroke="#000"
       stroke-width="2"
       d="M24.919 1019.894v-16.062" />
    <path
       id="path7595"
       fill="#262626"
       stroke="#000"
       stroke-width="2"
       d="M11.256 1019.587v-19.336" />
    <path
       id="path7597"
       fill="#262626"
       stroke="#000"
       stroke-width="2"
       d="M-2.5 1019.075v-23.426h.366" />
    <path
       id="path7599"
       fill="#262626"
       stroke="#000"
       stroke-width="2"
       d="M-15.8 1018.462v-28.949" />
    <path
       id="path8572"
       fill="#262626"
       stroke="#000"
       d="M39.857 1010.073l10.75-2.763" />
    <path
       id="path8574"
       fill="#262626"
       stroke="#000"
       d="M39.95 1005.675l11.476 5.625" />
    <path
       id="path8576"
       fill="#262626"
       stroke="#000"
       d="M25.465 1008.845l14.938-2.25" />
    <path
       id="path8578"
       fill="#262626"
       stroke="#000"
       d="M25.648 1003.731l14.028 7.772v-.101" />
    <path
       id="path8580"
       fill="#262626"
       stroke="#000"
       d="M11.435 1006.595l13.117-2.456" />
    <path
       id="path8582"
       fill="#262626"
       stroke="#000"
       d="M11.619 1000.456l12.57 9.207" />
    <path
       id="path8584"
       fill="#262626"
       stroke="#000"
       d="M-2.227 1003.013l13.301-2.861" />
    <path
       id="path8586"
       fill="#262626"
       stroke="#000"
       d="M-2.134 995.444l13.116 11.254" />
    <path
       id="path8588"
       fill="#262626"
       stroke="#000"
       d="M-15.617 996.774l12.754-1.229" />
    <path
       id="path8590"
       fill="#262626"
       stroke="#000"
       d="M-15.251 989.407l12.205 12.893" />
  </g>
  <g
     id="g12056"
     fill="#262626"
     stroke="#000">
    <g
       id="g11860">
      <path
         id="path11866"
         d="M446.558 941.386l5.375 12.687" />
      <path
         id="path11868"
         d="M454.654 947.321l-10.918-.818" />
      <path
         id="path11870"
         d="M453.215 947.729l3.988 11.05-.359-.308" />
      <path
         id="path11872"
         d="M473.672 964.354l-11.31-.921" />
      <path
         id="path11874"
         d="M475.981 965.835l10.468 18.723" />
      <path
         id="path11876"
         d="M488.429 974.991l-15.328.922" />
      <path
         id="path11878"
         d="M490.408 975.606l10.198 19.331" />
      <path
         id="path11880"
         d="M501.627 982.253l-13.407 5.73" />
      <path
         id="path11882"
         d="M503.996 984.096l10.648 17.698" />
      <path
         id="path11884"
         d="M515.365 989.825l-13.558 6.751" />
      <path
         id="path11886"
         d="M516.655 990.95l11.668 15.444" />
      <path
         id="path11888"
         d="M528.774 996.476l-12.209 6.033" />
      <path
         id="path11890"
         d="M532.973 998.521l8.998 11.148" />
      <path
         id="path11892"
         d="M542.99 1001.896l-10.498 5.217" />
      <path
         id="path11894"
         d="M546.801 1003.532c.358 0 8.367 7.367 8.367 7.367" />
      <path
         id="path11896"
         d="M555.739 1005.271l-8.938 4.811" />
      <path
         id="path11898"
         d="M558.379 1006.601l6.539 5.319" />
      <path
         id="path11900"
         stroke-width="2"
         d="M565.848 1007.625l-9.299 4.399" />
      <path
         id="path11902"
         stroke-width="2"
         d="M447.426 948.702v71.811" />
      <path
         id="path11904"
         stroke-width="2"
         d="M461.073 953.203v67.721" />
      <path
         id="path11906"
         stroke-width="2"
         d="M474.751 962.819v58" />
      <path
         id="path11908"
         stroke-width="2"
         d="M488.788 973.458v47.055" />
      <path
         id="path11910"
         stroke-width="2"
         d="M502.976 982.253v38.26" />
      <path
         id="path11912"
         stroke-width="2"
         d="M516.115 988.802v31.506l-.36-.226v.023" />
      <path
         id="path11914"
         stroke-width="2"
         d="M529.944 995.351v25.162" />
      <path
         id="path11916"
         stroke-width="2"
         d="M543.26 1000.669v20.255" />
      <path
         id="path11918"
         stroke-width="2"
         d="M557.088 1004.964v16.162" />
      <path
         id="path11920"
         d="M460.323 953.56l-10.166-.714" />
      <path
         id="path11922"
         d="M464.192 956.427l8.369 17.082" />
      <path
         id="path11924"
         stroke-width="2"
         d="M583.426 1020.229v-14.013" />
      <path
         id="path11926"
         stroke-width="2"
         d="M597.911 1020.229v-16.061" />
      <path
         id="path11928"
         stroke-width="2"
         d="M611.561 1019.923v-19.335" />
      <path
         id="path11930"
         stroke-width="2"
         d="M625.327 1019.411v-23.424h-.358" />
      <path
         id="path11932"
         stroke-width="2"
         d="M638.616 1018.798v-28.949" />
      <path
         id="path11934"
         d="M582.975 1010.411l-10.769-2.763" />
      <path
         id="path11936"
         d="M582.885 1006.012l-11.488 5.625" />
      <path
         id="path11938"
         d="M597.372 1009.181l-14.938-2.25" />
      <path
         id="path11940"
         d="M597.161 1004.067l-14.008 7.774v-.104" />
      <path
         id="path11942"
         d="M611.381 1006.931l-13.107-2.455" />
      <path
         id="path11944"
         d="M611.2 1000.794l-12.567 9.206" />
      <path
         id="path11946"
         d="M625.059 1003.351l-13.318-2.862" />
      <path
         id="path11948"
         d="M624.969 995.781l-13.14 11.251" />
      <path
         id="path11950"
         d="M638.438 997.112l-12.748-1.23" />
      <path
         id="path11952"
         d="M638.075 989.745l-12.207 12.891" />
    </g>
    <path
       id="path11954"
       stroke-width="2.138"
       d="M665.973 985.662l45.981 31.152" />
    <path
       id="path11956"
       stroke-width="2.138"
       d="M664.084 987.396l43.584 30.232" />
  </g>
  <path
     id="path2241"
     fill="#262626"
     stroke="#000"
     d="M57 1021.53l-.033-9.767s-1.707-.325-1.611-1.047c.098-.725 1.065-.199 1.354-1.085.924-2.843-.45-4.922-2.916-4.966-2.725.01-3.937 2.143-3.012 4.982.287.887 1.257.362 1.354 1.088.096.721-1.611 1.048-1.611 1.048l-.081 9.239v.543l6.556-.035z" />
  <path
     id="path2249"
     fill="#262626"
     stroke="#000"
     d="M572.116 1021.489l-.03-9.766s-1.709-.327-1.591-1.051c.091-.722 1.052-.199 1.351-1.085.93-2.84-.449-4.918-2.908-4.962-2.73.011-3.961 2.14-3.029 4.981.299.887 1.26.36 1.351 1.086.09.724-1.591 1.051-1.591 1.051l-.09 9.239v.542l6.537-.035z" />
  <path
     id="path10593"
     fill="#262626"
     stroke="#000"
     stroke-width=".904"
     d="M-44.829 1021.604l228.461.037v-1.455c-.021 0-203.232-.481-228.478-.502l.017 1.92z" />
  <path
     id="path2253"
     fill="#262626"
     stroke="#000"
     stroke-width=".904"
     d="M-44.809 1012.771h228.854v4.882h-228.854v-4.882z" />
  <g
     id="g2268"
     fill="#00ADEF"
     stroke="#000">
    <path
       id="path2264"
       d="M439.584 1013.079h408.252v5.062h-408.666l.414-5.062z" />
    <path
       id="path2266"
       d="M847.237 1020.261c-.061 0-409.209-.182-409.209-.182l.033 1.692h409.146l.03-1.51z" />
  </g>
  <path
     id="path2276"
     fill="#E84D5B"
     d="M387.734 1012.837h53.47v33.961h-53.742l.272-33.961z" />
  <path
     id="path2280"
     fill="#E84D5B"
     d="M182.87 1012.837h53.47v33.961h-53.742l.272-33.961z" />
  <g
     id="g4241">
    <path
       id="path2291"
       fill="#E84D5B"
       d="M231.709 1015.636l68.798-38.506 2.043 4.558-68.837 38.495-2.004-4.547z" />
    <path
       id="path2296"
       fill="#262626"
       stroke="#E84D5B"
       stroke-width="3"
       d="M232.114 1038.706c.052.011 41.812-38.818 69.463-54.691l1.934-1.106" />
    <path
       id="path3270"
       fill="#262626"
       stroke="#E84D5B"
       stroke-width="2.9"
       d="M239.427 1031.619l-6.677-12.996 12.538 5.491-4.064-9.396 11.878 3.177-3.978-9.049 11.028 3.122-3.271-7.703 10.379 2.233-2.769-6.245 8.61 1.324-2.472-4.76 7.862.854-2.04-4.112 6.826.465-1.606-3.463 6.221.235-2.298-5.017" />
  </g>
  <g
     id="g4247">
    <path
       id="path4249"
       fill="#E84D5B"
       d="M391.306 1014.928l-68.798-38.505-2.043 4.558 68.837 38.495 2.004-4.548z" />
    <path
       id="path4251"
       fill="#262626"
       stroke="#E84D5B"
       stroke-width="3"
       d="M390.901 1037.999c-.051.01-41.811-38.815-69.464-54.691l-1.932-1.107" />
    <path
       id="path4253"
       fill="#262626"
       stroke="#E84D5B"
       stroke-width="2.9"
       d="M383.589 1030.912l6.677-12.996-12.538 5.491 4.063-9.396-11.878 3.178 3.978-9.05-11.029 3.123 3.276-7.703-10.382 2.232 2.769-6.244-8.607 1.323 2.469-4.76-7.862.854 2.04-4.112-6.827.466 1.607-3.463-6.222.237 2.299-5.019" />
  </g>
  <path
     id="path12772"
     fill="#00ADEF"
     stroke="#000"
     stroke-width=".205"
     d="M-34.211 945.345c.249-.122.445-.452.445-.792 0-.455-.309-.822-.688-.822-.384 0-.693.367-.693.822 0 .354.189.656.483.792l-.069 4.602-1.157.017v.883h.433s.096 1.342-.132 2.328c-3.007 8.799-5.78 9.866-5.78 9.866l-3.387-.037-1.636 3.518-.032 12.053-1.742.021-.024 2.708h1.8v28.229l-1.997 5.804.065 29.03h27.446l-.063-29.41-2.061-5.805v-27.853h1.8l-.024-2.704-1.741-.023-.035-12.053-1.439-3.358-2.99-.118s-2.411-1.661-5.818-9.991c-.087-1.521.009-2.209-.007-2.223l.433.006-.006-.906h-1.176l-.204-4.576v-.007h-.004z" />
  <path
     id="path12108"
     fill="#E84D5B"
     stroke="#000"
     stroke-width=".205"
     d="M656.614 945.345c.271-.122.451-.452.451-.792 0-.455-.301-.822-.689-.822-.391 0-.69.367-.69.822 0 .354.182.656.479.792l-.061 4.602-1.168.017v.883h.449s.09 1.342-.15 2.328c-3 8.799-5.76 9.866-5.76 9.866l-3.389-.037-1.65 3.518-.029 12.053-1.74.021-.028 2.708h1.799v28.229l-1.979 5.804.06 29.03h27.447l-.062-29.41-2.07-5.805v-27.853h1.802l-.031-2.704-1.738-.023-.03-12.052-1.439-3.358-3-.118s-2.398-1.661-5.818-9.991c-.09-1.521.029-2.209 0-2.223l.42.006v-.906h-1.17l-.211-4.576v-.007h-.005z" />
</g>
<g
   id="layer4"
   stroke="#000"
   stroke-width=".072">
  <path
     id="path2912"
     fill="#00ADEF"
     d="M-188.233 979.151h32.982v-5.304h-3.27v-4.347h-3.753v-9.924l-2.289-1.482v-14.421l2.169-1.697v-1.7l-2.359-1.632v-1.494l.029-1.089s.045-.912-.727-.964c.042-.047.472-1.534-.6-2.063.129 0-.729-99.816-.729-99.816s-.581-.52-.953-.62c.187-.101 1.041-8.27 3.096-10.192l-.01-.351-.407-.034v-.575l.498-.239v-.475s-2.043-.187-2.421-1.105c-.016-.084-.831-4.639-2.874-5.13.098-.011-1.437-.017-1.604-.014s-1.743.017-1.604.021c-1.68.266-2.861 5.046-2.877 5.131-.378.919-2.42 1.104-2.42 1.104v.478l.5.236v.579l-.407.034-.013.351c2.055 1.92 2.913 10.092 3.096 10.193-.367.101-.952.619-.952.619s-.855 99.812-.729 99.812c-1.067.529-.642 2.02-.597 2.068-.771.048-.729.961-.729.961l.03 1.092v1.492l-2.36 1.633v1.698l2.169 1.7v14.418l-2.289 1.484v9.921h-3.753v4.353h-3.269v5.299h32.981" />
  <path
     id="path2914"
     fill="#E84D5B"
     d="M-174.153 815.144l-2.988-.029s.861-1.302.971-2.089c.16-.784 1.104-.938 1.237-1.51 0 .183.808-5.684 1.158-5.926.349-.238-.324-.33-.324-.33s-.216.634-.566.664c-.32.03-.617-1.752-.617-1.752l-.027-1.998.243-.178.054-.606.861-.212s.352.062.646.363c.026 0 .378-.455.701-.363.294.029.104-1.21.104-1.21l-.915-.057s.595-3.116 1.965-3.325c.027 0-.032-.414.055-.455.249-.114.43-.05.485 0 .039.037.054.634.054.634s.537.425.809.85c-.027-.183.456.846.456.846s.271.037.297.061c.064.062-.003.591-.027.664-.012.04-.672.183-.672.183l-.405.242-.188.12-.051 1.54.645.364.108.242s.591-.071.969 0c.081.014.429.663.32 1.3-.055.634.242 1.602.242 1.602l.379.967.242 1.178.563.152.217.455-.027.391-.647.303-1.425 6.832-.433-.182 1.563-6.803s-.353.03-.515-.15c-.161-.182-.859-1.994-.834-2.389-.054-.062-.27-.092-.27-.092v.819l.188.121-.025 3.836-.402 2.024-.782.091s-.239.668-.077.846c0 .061 1.101.121 1.072 1.422-.215-.063-4.387.604-4.387.544z" />
</g>
<g
   id="g3766"
   stroke="#D21C23"><path
   id="path2898"
   fill="none"
   stroke-width=".9"
   d="M-212.071 891.117c0 61.734-44.564 111.782-99.537 111.782-54.977 0-99.541-50.048-99.541-111.782 0-61.735 44.564-111.785 99.541-111.785 54.973 0 99.537 50.05 99.537 111.785z" />
<path
   id="path2900"
   fill="none"
   stroke-width="2.828"
   d="M-195.903 891.892c0 70.808-51.113 128.203-114.16 128.203-63.048 0-114.16-57.396-114.16-128.203 0-70.803 51.112-128.198 114.16-128.198 63.047-.002 114.16 57.395 114.16 128.198z" />


  path
     id=path2902
     fill=none
     stroke-width=.305
     d=M-347.651 786.78l-10.297-9.895.801 15.034-9.956-9.25.805 14.391-9.27-8.737 1.944 14.519-9.953-6.553 3.317 12.848-12.587-3.725 5.492 11.691-11.785-2.697 5.948 11.95-13.042-2.056 7.78 11.306h-12.357l8.009 7.711-12.014 2.441 8.24 7.579-12.358 4.241 9.038 8.095-10.525 6.04 9.725 5.396-12.355 7.45 9.611 2.06-10.069 9.894 11.213 1.543-10.069 10.793 12.357.645-10.64 10.92 12.355-.256-9.726 10.277 13.615.256-9.038 10.537 12.355-1.539-8.466 13.875 13.501-4.882-7.78 15.934 13.045-6.427-4.809 18.631 12.932-8.479-3.776 18.76 13.387-9.381-2.401 18.503 11.785-10.537-1.028 19.403 11.668-13.104 2.175 18.887 10.756-13.363 3.09 18.889 9.267-15.29 4.69 17.731 6.979-16.705 7.554 17.732 4.806-17.604 7.663 16.448 4.351-18.632 9.838 15.418 2.062-18.375 11.213 14.006.459-18.887 11.898 12.848-.915-20.043 12.469 11.305-2.63-18.371 11.669 10.021-3.203-19.403 13.501 7.455-4.807-18.891 13.844 6.168-7.321-16.961 14.532 5.141-9.842-16.705 15.218 1.543-11.1-13.106 13.615-.771-11.44-11.562 14.416-4.241-12.929-9.894 13.729-3.981-12.586-7.326 12.698-3.981-14.069-5.523 12.469-8.738-15.33-1.415 11.557-9.638h-12.699l12.47-9.766-16.019.516 10.298-12.335-14.875 4.112 10.069-12.724-14.529 1.543 6.635-14.777-13.729 6.041 5.262-16.833-12.014 8.095 3.432-17.217-11.898 10.021.801-18.76-10.123 11.372-1.936-18.904-11.812 10.358-2.427-16.9-9.062 12.902-1.94-15.81-8.417 13.992-4.367-15.989-5.015 13.808-6.312-15.444-4.209 15.444-8.413-13.629-1.134 14.538-10.841-12.174-.647 15.264-10.029-11.086-1.488 14.951z /
  <g
   fill="#00ADEF"
   id="g205">
  <path
     id="path2836"
     stroke-miterlimit="10"
     d="M-312.198 756.156c0 4.262-3.077 7.718-6.875 7.718-3.795 0-6.872-3.456-6.872-7.718 0-4.265 3.077-7.721 6.872-7.721 3.797.003 6.875 3.458 6.875 7.721z" />
  <path
     id="path2838"
     stroke-miterlimit="10"
     d="M-338.592 761.91c0 4.265-3.077 7.721-6.875 7.721s-6.875-3.456-6.875-7.721c0-4.262 3.077-7.717 6.875-7.717s6.875 3.455 6.875 7.717z" />
  <path
     id="path2840"
     stroke-miterlimit="10"
     d="M-359.789 771.178c0 4.265-3.078 7.722-6.875 7.722-3.795 0-6.872-3.457-6.872-7.722 0-4.262 3.077-7.718 6.872-7.718 3.797 0 6.875 3.456 6.875 7.718z" />
  <path
     id="path2842"
     stroke-miterlimit="10"
     d="M-379.533 785.352c0 4.267-3.077 7.722-6.871 7.722-3.798 0-6.875-3.455-6.875-7.722 0-4.264 3.077-7.717 6.875-7.717 3.793 0 6.871 3.453 6.871 7.717z" />
  <path
     id="path2844"
     stroke-miterlimit="10"
     d="M-395.712 802.979c0 4.262-3.078 7.719-6.875 7.719-3.795 0-6.872-3.457-6.872-7.719 0-4.265 3.077-7.721 6.872-7.721 3.797.001 6.875 3.457 6.875 7.721z" />
  <path
     id="path2846"
     stroke-miterlimit="10"
     d="M-408.821 823.874c0 4.266-3.077 7.721-6.872 7.721-3.798 0-6.875-3.455-6.875-7.721 0-4.261 3.077-7.717 6.875-7.717 3.795 0 6.872 3.456 6.872 7.717z" />
  <path
     id="path2848"
     stroke-miterlimit="10"
     d="M-418.528 847.862c0 4.264-3.077 7.721-6.875 7.721-3.794 0-6.871-3.457-6.871-7.721 0-4.263 3.077-7.719 6.871-7.719 3.798.002 6.875 3.458 6.875 7.719z" />
  <path
     id="path2850"
     stroke-miterlimit="10"
     d="M-423.707 873.302c0 4.265-3.077 7.722-6.872 7.722-3.798 0-6.875-3.457-6.875-7.722 0-4.262 3.077-7.718 6.875-7.718 3.795 0 6.872 3.456 6.872 7.718z" />
  <path
     id="path2852"
     stroke-miterlimit="10"
     d="M-425.324 899.107c0 4.261-3.077 7.718-6.875 7.718-3.794 0-6.872-3.457-6.872-7.718 0-4.266 3.078-7.722 6.872-7.722 3.797.002 6.875 3.458 6.875 7.722z" />
  <path
     id="path2854"
     stroke-miterlimit="10"
     d="M-421.44 925.638c0 4.263-3.077 7.719-6.875 7.719-3.794 0-6.872-3.456-6.872-7.719 0-4.264 3.078-7.721 6.872-7.721 3.798 0 6.875 3.457 6.875 7.721z" />
  <path
     id="path2856"
     stroke-miterlimit="10"
     d="M-413.998 950.35c0 4.266-3.077 7.722-6.871 7.722-3.798 0-6.875-3.456-6.875-7.722 0-4.261 3.077-7.718 6.875-7.718 3.794 0 6.871 3.457 6.871 7.718z" />
  <path
     id="path2858"
     stroke-miterlimit="10"
     d="M-401.537 974.7c0 4.262-3.078 7.718-6.875 7.718-3.795 0-6.872-3.456-6.872-7.718 0-4.265 3.077-7.722 6.872-7.722 3.797.001 6.875 3.46 6.875 7.722z" />
  <path
     id="path2860"
     stroke-miterlimit="10"
     d="M-382.928 996.505c0 4.267-3.077 7.721-6.875 7.721s-6.875-3.454-6.875-7.721c0-4.261 3.077-7.717 6.875-7.717s6.875 3.456 6.875 7.717z" />
  <path
     id="path2862"
     stroke-miterlimit="10"
     d="M-362.057 1013.042c0 4.264-3.074 7.721-6.872 7.721s-6.875-3.457-6.875-7.721c0-4.262 3.077-7.718 6.875-7.718s6.872 3.456 6.872 7.718z" />
  <path
     id="path2864"
     stroke-miterlimit="10"
     d="M-334.797 1024.855c0 4.261-3.078 7.717-6.875 7.717-3.795 0-6.872-3.456-6.872-7.717 0-4.266 3.077-7.723 6.872-7.723 3.797.002 6.875 3.459 6.875 7.723z" />
  <path
     id="path2866"
     stroke-miterlimit="10"
     d="M-303.557 1027.749c0 4.261-3.078 7.717-6.875 7.717-3.794 0-6.872-3.456-6.872-7.717 0-4.266 3.078-7.721 6.872-7.721 3.797 0 6.875 3.455 6.875 7.721z" />
  <path
     id="path2868"
     stroke-miterlimit="10"
     d="M-276.378 1026.034c0 4.265-3.077 7.721-6.871 7.721-3.798 0-6.876-3.456-6.876-7.721 0-4.263 3.078-7.717 6.876-7.717 3.794 0 6.871 3.454 6.871 7.717z" />
  <path
     id="path2870"
     stroke-miterlimit="10"
     d="M-247.816 1015.403c0 4.264-3.078 7.721-6.875 7.721-3.798 0-6.876-3.457-6.876-7.721 0-4.263 3.078-7.719 6.876-7.719 3.797.002 6.875 3.458 6.875 7.719z" />
  <path
     id="path2872"
     stroke-miterlimit="10"
     d="M-224.03 997.778c0 4.262-3.077 7.718-6.875 7.718-3.797 0-6.875-3.456-6.875-7.718 0-4.265 3.078-7.722 6.875-7.722 3.798.002 6.875 3.459 6.875 7.722z" />
  <path
     id="path2874"
     stroke-miterlimit="10"
     d="M-206.231 976.517c0 4.266-3.077 7.722-6.874 7.722-3.798 0-6.876-3.456-6.876-7.722 0-4.262 3.078-7.717 6.876-7.717 3.797 0 6.874 3.455 6.874 7.717z" />
  <path
     id="path2876"
     stroke-miterlimit="10"
     d="M-193.125 953.075c0 4.264-3.077 7.721-6.875 7.721-3.795 0-6.872-3.457-6.872-7.721 0-4.263 3.077-7.718 6.872-7.718 3.798 0 6.875 3.455 6.875 7.718z" />
  <path
     id="path2878"
     stroke-miterlimit="10"
     d="M-184.873 927.271c0 4.265-3.077 7.721-6.872 7.721-3.798 0-6.875-3.456-6.875-7.721 0-4.262 3.077-7.718 6.875-7.718 3.795.002 6.872 3.458 6.872 7.718z" />
  <path
     id="path2880"
     stroke-miterlimit="10"
     d="M-180.826 901.469c0 4.266-3.078 7.722-6.875 7.722-3.795 0-6.872-3.456-6.872-7.722 0-4.265 3.077-7.721 6.872-7.721 3.796 0 6.875 3.456 6.875 7.721z" />
  <path
     id="path2882"
     stroke-miterlimit="10"
     d="M-181.313 874.757c0 4.265-3.078 7.722-6.875 7.722-3.795 0-6.872-3.457-6.872-7.722 0-4.266 3.077-7.721 6.872-7.721 3.797 0 6.875 3.455 6.875 7.721z" />
  <path
     id="path2884"
     stroke-miterlimit="10"
     d="M-186.976 847.862c0 4.264-3.078 7.721-6.875 7.721-3.795 0-6.872-3.457-6.872-7.721 0-4.263 3.077-7.719 6.872-7.719 3.797.002 6.875 3.458 6.875 7.719z" />
  <path
     id="path2886"
     stroke-miterlimit="10"
     d="M-196.037 825.33c0 4.265-3.078 7.721-6.875 7.721-3.795 0-6.872-3.456-6.872-7.721s3.077-7.721 6.872-7.721c3.797 0 6.875 3.456 6.875 7.721z" />
  <path
     id="path2888"
     stroke-miterlimit="10"
     d="M-210.115 803.162c0 4.261-3.077 7.717-6.875 7.717-3.795 0-6.872-3.456-6.872-7.717 0-4.266 3.077-7.722 6.872-7.722 3.798 0 6.875 3.456 6.875 7.722z" />
  <path
     id="path2890"
     stroke-miterlimit="10"
     d="M-225.973 785.716c0 4.266-3.077 7.722-6.872 7.722-3.798 0-6.875-3.456-6.875-7.722 0-4.265 3.077-7.721 6.875-7.721 3.794 0 6.872 3.456 6.872 7.721z" />
  <path
     id="path2892"
     stroke-miterlimit="10"
     d="M-245.713 771.359c0 4.264-3.078 7.721-6.875 7.721-3.795 0-6.872-3.457-6.872-7.721 0-4.263 3.077-7.719 6.872-7.719 3.797.002 6.875 3.458 6.875 7.719z" />
  <path
     id="path2894"
     stroke-miterlimit="10"
     d="M-267.073 761.547c0 4.264-3.077 7.721-6.872 7.721-3.797 0-6.875-3.457-6.875-7.721 0-4.262 3.078-7.718 6.875-7.718 3.794 0 6.872 3.456 6.872 7.718z" />
  <path
     id="path2896"
     stroke-miterlimit="10"
     d="M-288.754 756.643c0 4.262-3.077 7.718-6.875 7.718-3.797 0-6.875-3.456-6.875-7.718 0-4.266 3.078-7.721 6.875-7.721 3.798 0 6.875 3.455 6.875 7.721z" />
  <path
     id="path2904"
     stroke-width=".9"
     d="M-302.571 888.291c0 4.753-3.431 8.606-7.666 8.606-4.232 0-7.664-3.854-7.664-8.606 0-4.757 3.432-8.61 7.664-8.61 4.236 0 7.666 3.853 7.666 8.61z" />
</g>
<path
   id="path2906"
   fill="#E84D5B"
   stroke-width=".349"
   d="M-313.606 895.655l2.437.033s-3.578 38.586-14.244 148.12l-12.455-.27" />
<path
   id="path2908"
   fill="#E84D5B"
   stroke-width=".353"
   d="M-308.596 895.523l-2.492.033s5.146 46.364 15.857 148.623l11.475-.785" />
</g>
<g
   id="g3522">
  <g
     id="g3172">
    <g
       id="g3174">
      <path
         id="path3176"
         fill="#0F0F0F"
         stroke="#000"
         stroke-width=".123"
         d="M-444.755 1004.112v-119.196h2.058v-29.307h-3.956v-4.743h-1.818l-5.381-9.994v-9.119l-5.811-20.632-.039-3.83v3.826l-6.305 20.636v9.119l-5.383 9.994h-1.816v4.743h-3.956v29.307h2.058v119.212l30.354-.016h-.005z" />
      <path
         id="path3178"
         fill="#fff"
         d="M-451.481 869.612c.004 5.707-4.115 10.335-9.199 10.335-5.081 0-9.199-4.628-9.195-10.335-.004-5.706 4.114-10.334 9.195-10.334 5.084 0 9.203 4.628 9.199 10.334z" />
    </g>
    <path
       id="path3180"
       fill="#0F0F0F"
       d="M-508.25 950.312l49.679-.161v53.967l-49.78.162.101-53.968z" />
  </g>
  <g
     id="g3202"
     stroke="#000">
    <path
       id="path3204"
       d="M-479.139 1043.847h-33.276v-118.654l4.318-10.976 3.377 10.911.047 11.23h18.213v-12.197l3.585-9.904 3.697 10.096.039 119.494z" />
    <path
       id="path3206"
       d="M-533.644 1043.856h-33.276v-118.652l4.318-10.976 3.377 10.91.045 11.23h18.215v-12.197l3.584-9.904 3.697 10.097.04 119.492z" />
    <path
       id="path3208"
       stroke-width=".234"
       d="M-528.365 956.581l.103.887c.892.623.99 2.166.967 2.177l-.03 9.381-2.147.014-.029-9.396c-.021-.01.074-1.553.969-2.176l.061-.887h.106z" />
    <path
       id="path3210"
       stroke-width="1.836"
       d="M-553.355 969.419h61.374l-1.409 74.148-60.436.029.471-74.177z" />
    <path
       id="path3212"
       stroke-width=".234"
       d="M-516.814 956.581l.103.887c.892.623.986 2.166.966 2.177l-.029 9.381-2.147.014-.029-9.396c-.021-.01.075-1.553.969-2.176l.061-.887h.106z" />
  </g>
  <g
     id="g3240"
     stroke="#000">
    <path
       id="path3260"
       stroke-width=".236"
       d="M-588.464 966.3l.102.886c.903.62 1.002 2.166.981 2.174l-.03 9.381-2.178.014-.03-9.395c-.021-.008.078-1.554.98-2.177l.061-.883h.114z" />
    <path
       id="path3262"
       stroke-width=".236"
       d="M-575.629 966.3l.103.886c.902.62.998 2.166.979 2.174l-.03 9.381-2.175.014-.029-9.395c-.021-.008.074-1.554.979-2.177l.061-.883h.112z" />
    <path
       id="path3264_1_"
       stroke-width="1.14"
       d="M-545.052 978.659v65.181" />
  </g>
</g>
</g>
  </g>
  <g
     id="mountains">
    <path
       fill="#D4E5F6"
       d="M-792.243 1119.833"
       id="path258" />
    <polygon
       fill="#14757B"
       points="-209.3,510.472 -37.804,689.235 -193.184,705.394"
       id="polygon260" />
    <polygon
       fill="#ACE8EA"
       points="-402.598,667.509 -345.107,604.72 -321.267,642.229 -398.216,859.793"
       id="polygon262" />
    <path
       fill="#A7C6E8"
       d="M-927.366 1503.302"
       id="path264" />
    <path
       fill="#A7C6E8"
       d="M-1577.241 1702.573"
       id="path266" />
    <path
       fill="#C1DDF3"
       d="M-1577.241 1702.573"
       id="path268" />
    <path
       fill="#5984C3"
       d="M-832.03 1389.982"
       id="path270" />
    <path
       fill="#A7C6E8"
       d="M-588.439 1107.608"
       id="path272" />
    <path
       fill="#0D72B9"
       d="M-854.126 1095.198"
       id="path274" />
    <polygon
       fill="#ACE8EA"
       points="-854.126,1095.198 -735.19,578.242 -588.439,1107.608"
       id="polygon276" />
    <polygon
       fill="#F5ECD9"
       points="-735.19,578.242 -649.129,529.291 -588.439,1107.608"
       id="polygon278" />
    <polygon
       fill="#fff"
       points="-646.729,553.362 -649.129,529.291 -566.951,373.859 -471.992,709.22"
       id="polygon280" />
    <polygon
       fill="#229098"
       points="-588.439,1107.608 -471.992,709.22 -626.096,552.59 -646.729,553.362"
       id="polygon282" />
    <polygon
       fill="#F5ECD9"
       points="-345.107,1147.357 -588.439,1107.608 -471.992,709.22 -402.598,667.509"
       id="polygon284" />
    <polygon
       fill="#C1E8E7"
       points="-566.951,373.859 -402.598,667.509 -471.992,709.22"
       id="polygon286" />
    <path
       fill="#5984C3"
       d="M-854.126 1095.198"
       id="path288" />
    <polygon
       fill="#fff"
       points="-345.107,604.72 -209.3,510.472 -180.034,864.441"
       id="polygon290" />
    <polygon
       fill="#14757B"
       points="-398.216,859.793 -330.423,1226.866 -180.034,864.441 -321.267,642.229"
       id="polygon292" />
    <polygon
       fill="#ACE8EA"
       points="-357.747,1078.915 -330.423,1226.866 -398.216,859.793 -588.439,1107.608"
       id="polygon294" />
    <polygon
       fill="#229098"
       points="-209.3,510.472 -193.184,705.394 -180.034,864.441"
       id="polygon296" />
    <polygon
       fill="#14757B"
       points="-191.831,1193.399 -180.034,864.441 -330.423,1226.866"
       id="polygon298" />
    <polygon
       fill="#229098"
       points="71.511,1204.285 -191.831,1193.399 -180.034,864.441"
       id="polygon300" />
    <polygon
       fill="#ACE8EA"
       points="71.511,1204.285 -37.804,689.235 -180.034,864.441"
       id="polygon302" />
    <polygon
       fill="#F5ECD9"
       points="71.511,1204.285 227.962,1204.132 -37.804,689.235"
       id="polygon304" />
    <polygon
       fill="#14757B"
       points="-37.804,689.235 171.052,897.846 227.962,1204.132"
       id="polygon306" />
    <polygon
       fill="#63D3D6"
       points="227.962,1204.132 426.55,1189.605 171.052,897.846"
       id="polygon308" />
    <polygon
       fill="#ACE8EA"
       points="-37.804,689.235 -116.212,415.166 88.257,723.859"
       id="polygon310" />
    <polygon
       fill="#63D3D6"
       points="171.052,897.846 88.257,723.859 -37.804,689.235"
       id="polygon312" />
    <polygon
       fill="#fff"
       points="-37.804,689.235 -116.212,415.166 -209.3,510.472"
       id="polygon314" />
    <polygon
       fill="#229098"
       points="-402.598,667.509 -345.107,604.72 -566.951,373.859"
       id="polygon316" />
    <polygon
       fill="#63D3D6"
       points="426.55,1189.605 490.658,1138.932 273.831,934.037"
       id="polygon318" />
    <polygon
       fill="#ACE8EA"
       points="490.658,1138.932 701.151,1101.004 454.365,929.785 273.831,934.037"
       id="polygon320" />
    <polygon
       fill="#C1E8E7"
       points="255.411,944.84 148.075,795.87 148.075,691.64 250.054,605.882 454.365,929.785"
       id="polygon322" />
    <polygon
       fill="#1C8389"
       points="701.151,1101.004 250.054,605.882 454.365,929.785"
       id="polygon324" />
    <polygon
       fill="#fff"
       points="168.141,820.025 255.411,944.84 250.054,605.882 88.257,723.859"
       id="polygon326" />
    <polygon
       fill="#63D3D6"
       points="488.188,867.465 599.406,883.821 761.608,1042.641 701.151,1101.004"
       id="polygon328" />
    <polygon
       fill="#C1E8E7"
       points="454.365,929.785 490.658,1138.932 255.411,944.84"
       id="polygon330" />
    <polygon
       fill="#C1E8E7"
       points="599.406,883.821 701.151,1101.004 761.608,1042.641"
       id="polygon332" />
  </g>
  <g
     id="clouds">
    <path
       fill="#F5ECD9"
       d="M188.406 612.645c0-10.18-8.252-18.432-18.432-18.432s-18.432 8.252-18.432 18.432h36.864z"
       id="path335" />
    <path
       fill="#F5ECD9"
       d="M273.68 612.645c0-10.18-8.252-18.432-18.432-18.432-10.185 0-18.437 8.252-18.437 18.432h36.869z"
       id="path337" />
    <path
       fill="#F5ECD9"
       d="M231.043 612.645c0-15.688-12.729-28.424-28.426-28.424s-28.429 12.729-28.429 28.424h56.855z"
       id="path339" />
    <g
       fill="#F5ECD9"
       id="g341">
      <path
         d="M253.926 342.688c0-4.557-3.693-8.25-8.25-8.25s-8.25 3.693-8.25 8.25h16.5zM279.373 342.688c0-3.513-2.853-6.361-6.361-6.361s-6.361 2.849-6.361 6.361h12.722zM273.012 342.688c0-7.026-5.697-12.723-12.725-12.723-7.025 0-12.728 5.696-12.728 12.723h25.453z"
         id="path343" />
    </g>
    <g
       fill="#F5ECD9"
       id="g345">
      <path
         d="M460.604 534.379c0-6.624 5.369-11.992 11.993-11.992 6.622 0 11.991 5.368 11.991 11.992h-23.984zM376.655 534.379c0-9.936 8.059-17.989 17.979-17.989 9.938 0 17.983 8.062 17.983 17.989h-35.962zM400.641 534.379c0-19.871 16.104-35.979 35.979-35.979s35.979 16.104 35.979 35.979h-71.958z"
         id="path347" />
    </g>
    <g
       fill="#F5ECD9"
       id="g349">
      <path
         d="M482.551 554.23c0-5.273 4.271-9.562 9.549-9.562 5.271 0 9.557 4.273 9.557 9.562h-19.106zM497.275 554.23c0-4.064 3.297-7.361 7.354-7.361 4.062 0 7.358 3.297 7.358 7.361h-14.712z"
         id="path351" />
    </g>
    <g
       fill="#F5ECD9"
       id="g353">
      <path
         d="M803.939 380.535c0-19.677-15.953-35.632-35.641-35.632-19.681 0-35.627 15.955-35.627 35.632h71.268zM830.491 380.535c0-14.669-11.889-26.558-26.557-26.558-14.678 0-26.562 11.889-26.562 26.558h53.119zM744.854 380.535c0-8.801-7.137-15.936-15.938-15.936-8.802 0-15.938 7.135-15.938 15.936h31.876zM418.438 513.637c0-18.051-14.633-32.684-32.684-32.684-18.056 0-32.688 14.633-32.688 32.684h65.372zM377.432 513.637c0-13.455-10.896-24.354-24.354-24.354-13.448 0-24.354 10.896-24.354 24.354h48.708zM437.926 513.637c0-10.764-8.729-19.479-19.488-19.479-10.764 0-19.479 8.725-19.479 19.479h38.967zM338.45 513.637c0-8.062-6.543-14.617-14.61-14.617-8.072 0-14.617 6.56-14.617 14.617h29.227zM366.605 442.211"
         id="path355" />
      <path
         d="M346.316 370.211"
         id="path357" />
      <path
         d="M667.055 556.801c0-8.953-7.258-16.211-16.211-16.211s-16.211 7.258-16.211 16.211h32.422zM717.055 556.801c0-6.896-5.596-12.5-12.5-12.5-6.896 0-12.5 5.604-12.5 12.5h25zM704.555 556.801c0-13.807-11.188-25-25-25s-25 11.193-25 25h50zM304.781 534.908c0-7.674-6.229-13.896-13.896-13.896s-13.895 6.229-13.895 13.896h27.791zM315.139 534.908c0-5.721-4.637-10.357-10.354-10.357s-10.354 4.646-10.354 10.357h20.708zM281.736 534.908c0-3.438-2.778-6.215-6.215-6.215-3.432 0-6.215 2.771-6.215 6.215h12.43zM362.755 376.418c0-8.264-6.697-14.961-14.961-14.961-8.27 0-14.959 6.697-14.959 14.961h29.92zM467.479 376.418c0-12.395-10.047-22.441-22.438-22.441-12.396 0-22.44 10.047-22.44 22.441h44.878zM437.558 376.418c0-24.789-20.094-44.883-44.881-44.883s-44.886 20.094-44.886 44.883h89.767zM511.904 600.949c0-5.273-4.271-9.547-9.547-9.547-5.271 0-9.557 4.271-9.557 9.547h19.104zM497.182 600.949c0-4.064-3.297-7.361-7.354-7.361-4.062 0-7.356 3.297-7.356 7.361h14.71zM618.618 107.473c0-5.273-4.271-9.547-9.549-9.547-5.271 0-9.547 4.273-9.547 9.547h19.096zM603.898 107.473c0-4.064-3.307-7.361-7.361-7.361-4.062 0-7.358 3.297-7.358 7.361h14.719zM856.65 47.383c0-4.557-3.692-8.25-8.25-8.25-4.562 0-8.25 3.693-8.25 8.25h16.5zM882.098 47.383c0-3.513-2.848-6.361-6.354-6.361-3.521 0-6.356 2.849-6.356 6.361h12.71zM875.736 47.383c0-7.026-5.697-12.723-12.729-12.723-7.021 0-12.728 5.696-12.728 12.723h25.457zM66 395.904c0-5.273 4.271-9.547 9.549-9.547 5.271 0 9.547 4.271 9.547 9.547h-19.096zM80.725 395.904c0-4.064 3.297-7.361 7.361-7.361 4.062 0 7.363 3.297 7.363 7.361h-14.724z"
         id="path359" />
    </g>
    <path
       fill="#F5ECD9"
       d="M64.212 540.55h-8v-1h8v1zm-16 0h-8v-1h8v1zm-16 0h-8v-1h8v1zm-16 0h-8v-1h8v1zm-16 0h-8v-1h8v1zm-16 0h-8v-1h8v1zm-16 0h-8v-1h8v1zm-16 0h-8v-1h8v1zm-16 0h-8v-1h8v1zm-16 0h-8v-1h8v1zm-16 0h-8v-1h8v1zm-16 0h-5.417v-1h5.417v1z"
       id="path361" />
    <path
       fill="#F5ECD9"
       d="M1151.275 93.095h-8v-1h8v1zm-16 0h-8v-1h8v1zm-16 0h-8v-1h8v1zm-16 0h-8v-1h8v1zm-16 0h-8v-1h8v1zm-16 0h-8v-1h8v1zm-16 0h-8v-1h8v1z"
       id="path363" />
    <path
       fill="#F5ECD9"
       d="M721.096 317.734h-8v-1h8v1zm-16 0h-8v-1h8v1zm-16 0h-8v-1h8v1zm-16 0h-8v-1h8v1zm-16 0h-8v-1h8v1zm-16 0h-8v-1h8v1zm-16 0h-8v-1h8v1zm-16 0h-8v-1h8v1zm-16 0h-8v-1h8v1zm-16 0h-8v-1h8v1z"
       id="path365" />
  </g>
  <g
     id="Layer_1_1_">
    <g
       id="torre">
      <rect
         x="-589.07"
         y="481.503"
         fill="#FFFEF0"
         width="362.505"
         height="2900.03"
         id="rect483" />
      <rect
         x="-951.575"
         y="481.503"
         fill="#FFFEF0"
         width="362.504"
         height="2900.03"
         id="rect485" />
      <rect
         x="-864.493"
         y="481.503"
         fill="#E4E2D6"
         width="543.755"
         height="2900.03"
         id="rect487" />
      <polygon
         opacity=".4"
         fill="#C8C6BC"
         enable-background="new"
         points="-770.321,662.756 -407.816,662.756 -226.565,617.441 -226.565,640.099 -407.816,685.413 -770.321,685.413 -951.575,640.099 -951.575,617.441"
         id="polygon489" />
      <polygon
         opacity=".4"
         fill="#C8C6BC"
         enable-background="new"
         points="-223.021,617.441 -952.573,1346.993 -952.573,566.343 -226.565,566.343"
         id="polygon491" />
      <rect
         x="-770.321"
         y="300.254"
         fill="#FFFEF0"
         width="362.505"
         height="362.502"
         id="rect493" />
      <rect
         x="-600.396"
         y="-606.009"
         fill="#DA4453"
         width="22.655"
         height="453.127"
         id="rect495" />
      <rect
         x="-770.321"
         y="-84.91"
         fill="#E4E2D6"
         width="362.505"
         height="45.314"
         id="rect497" />
      <polygon
         fill="#FFFEF0"
         points="-1132.825,51.028 -770.321,-39.596 -770.321,-84.91 -1132.825,5.714 -1178.138,17.045 -1178.138,62.354"
         id="polygon499" />
      <polygon
         fill="#FFFEF0"
         points="-45.312,51.028 0,62.354 0,17.045 -45.312,5.714 -407.816,-84.91 -407.816,-39.596"
         id="polygon501" />
      <polygon
         fill="#E4E2D6"
         points="-407.816,662.756 -45.312,572.126 -45.312,209.625 -407.816,300.254"
         id="polygon503" />
      <polygon
         fill="#E4E2D6"
         points="-1132.825,572.126 -770.321,662.756 -770.321,300.254 -1132.825,209.625"
         id="polygon505" />
      <polygon
         fill="#E4E2D6"
         points="-407.816,300.254 -45.312,209.625 -45.312,119 -407.816,209.625"
         id="polygon507" />
      <rect
         x="-770.321"
         y="209.625"
         fill="#FFFEF0"
         width="362.505"
         height="90.629"
         id="rect509" />
      <polygon
         fill="#E4E2D6"
         points="-1132.825,209.625 -770.321,300.254 -770.321,209.625 -1132.825,119"
         id="polygon511" />
      <polygon
         fill="#FFFEF0"
         points="-770.321,-39.596 -1132.825,51.028 -1132.825,96.343 -770.321,5.714"
         id="polygon513" />
      <rect
         x="-770.321"
         y="-39.596"
         fill="#FFFEF0"
         width="362.505"
         height="45.31"
         id="rect515" />
      <polygon
         fill="#FFFEF0"
         points="-45.312,51.028 -407.816,-39.596 -407.816,5.714 -45.312,96.343"
         id="polygon517" />
      <polygon
         fill="#FFFEF0"
         points="-1132.825,96.343 -1178.138,107.669 -1178.138,62.354 -1132.825,51.028"
         id="polygon519" />
      <polygon
         fill="#E4E2D6"
         points="0,62.354 -1178.138,62.354 -770.321,164.311 -407.816,164.311"
         id="polygon521" />
      <polygon
         fill="#FFFEF0"
         points="-1178.138,62.354 0,62.354 -407.816,-39.596 -770.321,-39.596"
         id="polygon523" />
      <polygon
         fill="#E4E2D6"
         points="-135.939,62.354 -407.816,119 -441.803,-243.504"
         id="polygon525" />
      <polygon
         fill="#FFFEF0"
         points="-441.803,-243.504 -407.816,119 -770.321,119 -736.335,-243.504"
         id="polygon527" />
      <polygon
         fill="#E4E2D6"
         points="-736.335,-243.504 -770.321,119 -1042.198,62.354"
         id="polygon529" />
      <rect
         x="-770.321"
         y="119"
         fill="#DA4453"
         width="362.505"
         height="45.311"
         id="rect531" />
      <polygon
         fill="#BA3548"
         points="-1132.825,28.376 -770.321,119 -770.321,164.311 -770.321,209.625 -1132.825,119 -1178.138,107.669 -1178.138,62.354 -1178.138,17.045"
         id="polygon533" />
      <polygon
         fill="#ED5565"
         points="-45.312,28.376 0,17.045 0,62.354 0,107.669 -45.312,119 -407.816,209.625 -407.816,164.311 -407.816,119"
         id="polygon535" />
      <rect
         x="-770.321"
         y="164.311"
         fill="#DA4453"
         width="362.505"
         height="45.314"
         id="rect537" />
      <polygon
         opacity=".4"
         fill="#C8C6BC"
         enable-background="new"
         points="-407.816,209.625 -45.312,119 -45.312,164.311 -407.816,254.939 -770.321,254.939 -1132.825,164.311 -1132.825,119 -770.321,209.625"
         id="polygon539" />
      <path
         fill="#FFFEF0"
         d="M-611.726-606.009c0 12.512 10.146 22.655 22.655 22.655 12.514 0 22.657-10.144 22.657-22.655 0-12.514-10.146-22.657-22.657-22.657-12.508 0-22.655 10.144-22.655 22.657z"
         id="path541" />
    </g>
  </g>
  <g
     id="contacts">
    <rect
       x="-2766.4819"
       y="342.5"
       width="6910.6172"
       height="445.5"
       id="rect544"
       style="fill:#e84d5b" />
    <g
       id="linkedin"
       style="fill:#f5ecd9">
      <text
         transform="translate(64.822,571.17)"
         font-weight="100"
         font-size="18"
         id="text550"
         style="font-weight:100;font-size:18px">Github profile</text>
    </g>
    <g
       id="phone">
      <path
         d="m 45.604,476.917 -11.14,0 c -1.612,0 -2.938,1.317 -2.938,2.934 l 0,22.865 c 0,1.604 1.32,2.937 2.938,2.937 l 11.14,0 c 1.608,0 2.937,-1.32 2.937,-2.937 l 0,-22.865 c -0.006,-1.614 -1.325,-2.934 -2.937,-2.934 z m -5.57,27.559 c -1.141,0 -2.056,-0.654 -2.056,-1.464 0,-0.812 0.919,-1.468 2.056,-1.468 1.132,0 2.047,0.655 2.047,1.468 0.003,0.806 -0.913,1.464 -2.047,1.464 z m 6.156,-4.398 -12.312,0 0,-19.354 12.312,0 0,19.354 z"
         id="path560"
         inkscape:connector-curvature="0"
         style="fill:#f5ecd9" />
      <text
         transform="translate(64.429,497.295)"
         font-weight="100"
         font-size="18"
         id="text562"
         style="font-weight:100;font-size:18px;fill:#f5ecd9">+91 8961800376</text>
    </g>
    <g
       id="addressnumidia"
       font-weight="100"
       font-size="18"
       transform="matrix(0.99624746,0,0,1.0368322,0.12570811,-15.633562)"
       style="font-weight:100;font-size:18px;fill:#f5ecd9">
      <text
         transform="translate(33.271,438.129)"
         id="text565">Sarbajit Saha</text>
      <text
         transform="translate(33.271,459.728)"
         id="text567">AS 2/3, Phase-I, GolfGreen, Kolkata-95</text>
      <flowRoot
         xml:space="preserve"
         id="flowRoot4060"
         style="font-style:normal;font-weight:normal;font-size:40px;line-height:125%;font-family:sans-serif;letter-spacing:0px;word-spacing:0px;fill:#000000;fill-opacity:1;stroke:none;stroke-width:1px;stroke-linecap:butt;stroke-linejoin:miter;stroke-opacity:1"><flowRegion
           id="flowRegion4062"><rect
             id="rect4064"
             width="34.569664"
             height="138.9072"
             x="161.53462"
             y="608.35101" /></flowRegion><flowPara
           id="flowPara4066" /></flowRoot>      <g
         transform="translate(0.10621989,5.2155636)"
         style="fill:#f5ecd9"
         id="g593" />
    </g>
    <g
       id="contactresume"
       transform="translate(2.376762e-8,-32.684047)">
      path
         d=&quot;m 45.744,640.588 0,0.867 c 0,0.13 -0.041,0.229 -0.123,0.312 -0.082,0.087 -0.188,0.124 -0.313,0.124 l -9.574,0 c -0.127,0 -0.229,-0.036 -0.312,-0.124 -0.082,-0.081 -0.124,-0.184 -0.124,-0.312 l 0,-0.867 c 0,-0.13 0.042,-0.229 0.124,-0.312 0.082,-0.082 0.186,-0.123 0.312,-0.123 l 9.574,0 c 0.128,0 0.23,0.041 0.313,0.123 0.082,0.081 0.123,0.185 0.123,0.312 z m 0,-3.483 0,0.868 c 0,0.127 -0.041,0.231 -0.123,0.312 -0.082,0.082 -0.188,0.123 -0.313,0.123 l -9.574,0 c -0.127,0 -0.229,-0.041 -0.312,-0.123 -0.082,-0.081 -0.124,-0.188 -0.124,-0.312 l 0,-0.868 c 0,-0.129 0.042,-0.23 0.124,-0.312 0.082,-0.081 0.186,-0.122 0.312,-0.122 l 9.574,0 c 0.128,0 0.23,0.041 0.313,0.122 0.082,0.082 0.123,0.186 0.123,0.312 z m -12.183,8.27 13.923,0 0,-10.443 -5.655,0 c -0.363,0 -0.675,-0.126 -0.926,-0.381 -0.254,-0.251 -0.381,-0.56 -0.381,-0.925 l 0,-5.656 -6.962,0 10e-4,17.405 z m 8.701,-12.184 5.112,0 c -0.092,-0.266 -0.191,-0.449 -0.297,-0.56 l -4.259,-4.257 c -0.106,-0.108 -0.293,-0.211 -0.558,-0.299 l 0.002,5.116 z m 6.961,0.435 0,12.183 c 0,0.366 -0.127,0.676 -0.379,0.931 -0.254,0.251 -0.562,0.378 -0.926,0.378 l -14.795,0 c -0.363,0 -0.671,-0.127 -0.924,-0.378 -0.256,-0.255 -0.384,-0.562 -0.384,-0.931 l 0,-18.271 c 0,-0.366 0.128,-0.673 0.384,-0.925 0.253,-0.254 0.561,-0.381 0.924,-0.381 l 8.702,0 c 0.36,0 0.761,0.091 1.193,0.271 0.438,0.183 0.78,0.399 1.033,0.654 l 4.244,4.241 c 0.251,0.254 0.473,0.599 0.652,1.031 0.185,0.437 0.275,0.834 0.276,1.197 z&quot;
         id=&quot;path570&quot;
         inkscape:connector-curvature=&quot;0&quot;
         style=&quot;fill:#f5ecd9&quot; /&gt;
      <text
   font-weight="100"
   font-size="18"
   id="text572"
   transform="translate(65.608,645.044)"
   style="font-weight:100;font-size:18px;fill:#f5ecd9">View resume</text>
</g>
    <text
       transform="translate(26.604,402.719)"
       font-weight="100"
       font-size="36"
       id="text574"
       style="font-weight:100;font-size:36px;fill:#f5ecd9">To stay connected:</text>
    <g
       id="githubsite-1"
       transform="matrix(0.76221346,0,0,0.64512994,161.78647,-50.059379)">
      <path
         d="m -164.50808,966.36994 c -0.10175,0.1209 -0.23126,0.10831 -0.3862,-0.068 -0.16959,-0.15784 -0.19734,-0.28798 -0.0802,-0.3988 0.0987,-0.12258 0.22972,-0.1083 0.38775,0.0655 0.15648,0.15532 0.17961,0.28881 0.0786,0.40131 z m -0.81866,-1.2921 c 0.11717,0.1696 0.11717,0.30225 0,0.39796 -0.10252,0.0848 -0.21661,0.0344 -0.3307,-0.14861 -0.11409,-0.18134 -0.11409,-0.31819 0,-0.38368 0.11563,-0.0932 0.22663,-0.047 0.3307,0.13433 z m -1.18868,-1.27279 c -0.0648,0.10327 -0.14492,0.10999 -0.24899,0.0395 -0.13028,-0.0739 -0.17653,-0.15952 -0.13644,-0.25271 0.037,-0.0747 0.12025,-0.0865 0.24976,-0.0403 0.1295,0.0697 0.17653,0.15532 0.13567,0.25355 z m 0.60667,0.72035 c -0.0802,0.10243 -0.18269,0.0814 -0.31143,-0.0588 -0.11254,-0.15784 -0.1295,-0.26782 -0.037,-0.33918 0.0802,-0.084 0.18193,-0.063 0.31143,0.0663 0.11409,0.14861 0.12565,0.26111 0.037,0.33163 z m 2.50918,2.37431 c -0.0501,0.17715 -0.17498,0.21745 -0.36924,0.12594 -0.22124,-0.0554 -0.30295,-0.16372 -0.25362,-0.32324 0.0517,-0.16036 0.17653,-0.20821 0.36925,-0.15028 0.21045,0.0772 0.28985,0.19058 0.25361,0.34758 z m 1.22029,0.10579 c 0,0.16036 -0.0994,0.23172 -0.30526,0.23172 -0.22433,0.0302 -0.33533,-0.0487 -0.33533,-0.23172 0,-0.15784 0.10561,-0.22837 0.30912,-0.22837 0.22972,-0.0319 0.33147,0.0462 0.33147,0.22837 z m 1.13395,-0.21157 c 0.0254,0.14104 -0.064,0.24599 -0.27289,0.30056 -0.20736,0.0521 -0.3253,0 -0.3492,-0.17379 -0.0293,-0.17547 0.064,-0.27538 0.27289,-0.32407 0.20273,-0.0235 0.32145,0.0428 0.3492,0.1973 z m 18.85855,-20.3042 0,20.3445 c 0,1.68586 -0.5558,3.11816 -1.64503,4.31623 -1.09772,1.18968 -2.41899,1.79081 -3.96536,1.79081 l -4.36003,0 c -0.20814,0 -0.36231,-0.007 -0.47949,-0.0227 -0.10715,-0.0176 -0.23434,-0.0479 -0.3731,-0.1083 -0.14492,-0.0521 -0.25053,-0.15784 -0.30912,-0.30729 -0.0678,-0.14776 -0.0987,-0.33835 -0.0987,-0.58014 l 0,-5.06933 c 0,-1.36599 -0.33841,-2.37431 -1.01523,-3.00987 0.74697,-0.0831 1.40761,-0.21325 1.99963,-0.37697 0.58972,-0.17798 1.20102,-0.44833 1.83082,-0.82361 0.62594,-0.38201 1.15322,-0.85133 1.57643,-1.40461 0.41935,-0.55999 0.76007,-1.30721 1.02757,-2.22738 0.26595,-0.91933 0.39854,-1.98643 0.39854,-3.19205 0,-1.70433 -0.51495,-3.16603 -1.5402,-4.36158 0.48179,-1.28706 0.42552,-2.72944 -0.15649,-4.32883 -0.36539,-0.12425 -0.88727,-0.0521 -1.5772,0.22921 -0.6907,0.28461 -1.28427,0.59441 -1.79304,0.93276 l -0.74081,0.50878 c -1.20795,-0.36773 -2.45367,-0.54572 -3.7364,-0.54572 -1.28273,0 -2.53385,0.17883 -3.73409,0.54572 -0.21353,-0.15784 -0.48796,-0.34338 -0.82637,-0.57175 -0.33919,-0.225 -0.8865,-0.50038 -1.62345,-0.81858 -0.74235,-0.32407 -1.29738,-0.41475 -1.67665,-0.28713 -0.56658,1.60358 -0.61746,3.04428 -0.13567,4.33051 -1.02448,1.19891 -1.53711,2.64885 -1.53711,4.36241 0,1.20227 0.13259,2.25761 0.40008,3.1803 0.26672,0.9252 0.60744,1.66655 1.02063,2.22654 0.41241,0.56839 0.93506,1.03939 1.56409,1.4172 0.62364,0.38788 1.23648,0.65738 1.83005,0.82446 0.58894,0.16707 1.25574,0.29553 1.99578,0.37612 -0.51725,0.50962 -0.83871,1.23753 -0.94971,2.18625 -0.27829,0.14021 -0.56505,0.25439 -0.88265,0.32743 -0.30757,0.068 -0.68299,0.10579 -1.10928,0.10579 -0.42629,0 -0.85104,-0.15532 -1.27348,-0.46177 -0.42629,-0.29972 -0.78551,-0.74638 -1.0823,-1.32148 -0.24205,-0.45673 -0.55965,-0.82194 -0.94585,-1.1074 -0.38235,-0.28209 -0.70072,-0.45421 -0.95974,-0.51549 l -0.38851,-0.0638 c -0.27443,0 -0.46561,0.0386 -0.56428,0.0991 -0.0987,0.0638 -0.13644,0.14944 -0.0964,0.24767 0.0347,0.0991 0.0964,0.19646 0.17191,0.29721 0.0802,0.0999 0.16727,0.18471 0.25207,0.25439 l 0.13721,0.10411 c 0.29139,0.14356 0.56505,0.41475 0.84873,0.81102 0.27829,0.3946 0.4818,0.75562 0.6113,1.07801 l 0.19811,0.48779 c 0.16805,0.53817 0.45482,0.96971 0.85413,1.3089 0.40316,0.32575 0.84025,0.54236 1.30508,0.63639 0.46561,0.094 0.91579,0.14021 1.35211,0.14777 0.42937,0.0143 0.79476,-0.0201 1.07767,-0.0756 l 0.44788,-0.0873 c 0,0.54152 0.003,1.26607 0.009,2.18876 0.0123,0.90842 0.0154,1.39621 0.0154,1.43987 0,0.31232 -0.0763,0.54236 -0.21584,0.71363 -0.14261,0.1612 -0.28676,0.25019 -0.42937,0.26699 -0.14493,0.0277 -0.36385,0.0344 -0.63905,0.0344 l -4.36313,0 c -1.54713,0 -2.86455,-0.6003 -3.96072,-1.79081 -1.09233,-1.19387 -1.64581,-2.63625 -1.64581,-4.31623 l 0,-20.3487 c 0,-1.68418 0.5504,-3.11901 1.64581,-4.31539 1.09232,-1.19555 2.41359,-1.79165 3.96072,-1.79165 l 18.68203,0 c 1.54559,0 2.86378,0.5961 3.95918,1.79165 1.09618,1.18799 1.64581,2.63121 1.64581,4.31539 l 0.0116,0.003 z"
         id="path589"
         inkscape:connector-curvature="0"
         style="fill:#f5ecd9" />
    </g>
    <g
       transform="translate(-0.41717626,0.52478144)"
       style="fill:#f5ecd9"
       id="email"><text
   style="font-weight:100;font-size:18px"
   transform="translate(66,534.232)"
   font-weight="100"
   font-size="18"
   id="text547">sarbajitsaha1@gmail.com</text>

      path
         inkscape:connector-curvature=&quot;0&quot;
         d=&quot;m 47.688,535.041 0,-7.457 c -0.204,0.233 -0.431,0.447 -0.671,0.643 -1.732,1.332 -3.115,2.431 -4.136,3.282 -0.33,0.277 -0.599,0.496 -0.804,0.647 -0.207,0.152 -0.487,0.31 -0.842,0.471 -0.354,0.159 -0.684,0.237 -0.991,0.237 l -0.021,0 c -0.311,0 -0.645,-0.078 -0.993,-0.237 -0.354,-0.161 -0.633,-0.314 -0.839,-0.471 -0.206,-0.151 -0.474,-0.372 -0.804,-0.647 -1.022,-0.854 -2.4,-1.948 -4.136,-3.282 -0.24,-0.192 -0.461,-0.405 -0.674,-0.643 l 0,7.457 c 0,0.084 0.031,0.157 0.096,0.219 0.062,0.063 0.135,0.094 0.22,0.094 l 14.297,0 c 0.084,0 0.157,-0.032 0.219,-0.094 0.063,-0.062 0.096,-0.135 0.096,-0.219 l -0.017,0 z m 0,-10.205 0,-0.238 -0.006,-0.126 -0.03,-0.12 -0.053,-0.089 c -0.02,-0.061 -0.048,-0.086 -0.088,-0.07 l -0.136,-0.022 -14.296,0 c -0.083,0 -0.157,0.031 -0.221,0.092 -0.062,0.062 -0.092,0.138 -0.092,0.222 0,1.09 0.479,2.008 1.428,2.757 1.25,0.981 2.547,2.011 3.892,3.076 l 0.34,0.283 0.446,0.363 c 0.107,0.085 0.252,0.188 0.435,0.305 0.176,0.119 0.341,0.209 0.488,0.271 0.146,0.059 0.289,0.088 0.419,0.088 l 0.018,0 c 0.129,0 0.271,-0.029 0.418,-0.088 0.146,-0.062 0.312,-0.146 0.488,-0.271 l 0.438,-0.305 0.443,-0.363 0.337,-0.283 c 1.351,-1.068 2.647,-2.099 3.896,-3.076 0.35,-0.278 0.673,-0.652 0.976,-1.121 0.309,-0.478 0.46,-0.904 0.46,-1.285 z m 1.242,-0.357 0,10.562 c 0,0.428 -0.152,0.794 -0.459,1.095 -0.303,0.306 -0.671,0.459 -1.094,0.459 l -14.296,0 c -0.43,0 -0.792,-0.148 -1.097,-0.459 -0.303,-0.304 -0.459,-0.672 -0.459,-1.095 l 0,-10.562 c 0,-0.43 0.152,-0.795 0.459,-1.098 0.306,-0.303 0.674,-0.456 1.097,-0.456 l 14.296,0 c 0.429,0 0.793,0.15 1.094,0.456 0.307,0.303 0.459,0.668 0.459,1.098 z&quot;
         id=&quot;path549&quot; /&gt;
    </g>
    <text
       y="695.03717"
       x="349.84955"
       transform="scale(0.9939031,1.0061343)"
       font-weight="100"
       font-size="18"
       id="text577"
       style="font-weight:100;font-size:18.24799919px;fill:#f5ecd9"> 2016 Sarbajit Saha</text>
  </g>
  <text
     transform="translate(26.604 122.301)"
     fill="#2BACB5"
     font-weight="100"
     font-size="36"
     id="ownership">And always reliable.</text>
  <g
     id="leaving"
     fill="#F5ECD9"
     font-weight="100"
     font-size="36">
    <!--<text
       transform="translate(26.604 182.247)"
       id="text598">I'm leaving Italy and looking for a development position</text>
    <text
       transform="translate(26.604 222.194)"
       id="text600">within the EU with a forward thinking IT company</text>
    <text
       transform="translate(26.604 262.142)"
       id="text602">where I can continue to grow.</text>-->
  </g>
  <text
     id="passionate"
     transform="translate(26.604 62.353)"
     fill="#E84D5B"
     font-weight="100"
     font-size="36">Im passionate about my job.</text>
  <text
     transform="translate(26.604 319.345)"
     fill="#2BACB5"
     font-weight="100"
     font-size="36"
     id="thankyouforscrolling">Thank you for scrolling this far :)</text>
</svg>
